M48
; DRILL file {KiCad (6.0.11)} date Fri 10 Feb 2023 04:12:33 PM CST
; FORMAT={-:-/ absolute / inch / decimal}
; #@! TF.CreationDate,2023-02-10T16:12:33-06:00
; #@! TF.GenerationSoftware,Kicad,Pcbnew,(6.0.11)
; #@! TF.FileFunction,Plated,1,2,PTH
FMAT,2
INCH
; #@! TA.AperFunction,Plated,PTH,ViaDrill
T1C0.0157
; #@! TA.AperFunction,Plated,PTH,ComponentDrill
T2C0.0276
; #@! TA.AperFunction,Plated,PTH,ComponentDrill
T3C0.0394
%
G90
G05
T1
X6.5039Y-1.8268
X6.5512Y-2.0315
X6.6063Y-2.0787
X6.6535Y-1.7638
X6.685Y-2.0315
X6.685Y-2.0787
X6.7087Y-1.8268
X7.0157Y-1.7638
X7.1496Y-2.3071
X7.1654Y-1.7244
X7.2992Y-2.2756
X7.2992Y-2.2756
X7.4016Y-1.7323
X7.5039Y-2.3071
X7.5236Y-1.7638
X7.5748Y-1.7323
X7.685Y-1.7165
X7.7795Y-1.7638
T2
X6.9291Y-1.889
X6.9291Y-2.189
X7.0157Y-1.8894
X7.0157Y-2.1894
X7.1024Y-1.8894
X7.1024Y-2.1894
X7.7717Y-2.0626
X7.7717Y-2.3626
X7.8425Y-1.8181
X7.8425Y-2.1181
T3
X6.448Y-2.4183
X6.548Y-2.4183
X6.648Y-2.4183
X6.748Y-2.4183
T0
M30
