%TF.GenerationSoftware,KiCad,Pcbnew,(6.0.11)*%
%TF.CreationDate,2023-02-10T16:12:38-06:00*%
%TF.ProjectId,leapsd,6c656170-7364-42e6-9b69-6361645f7063,rev?*%
%TF.SameCoordinates,Original*%
%TF.FileFunction,Copper,L2,Bot*%
%TF.FilePolarity,Positive*%
%FSLAX46Y46*%
G04 Gerber Fmt 4.6, Leading zero omitted, Abs format (unit mm)*
G04 Created by KiCad (PCBNEW (6.0.11)) date 2023-02-10 16:12:38*
%MOMM*%
%LPD*%
G01*
G04 APERTURE LIST*
%TA.AperFunction,ComponentPad*%
%ADD10C,1.400000*%
%TD*%
%TA.AperFunction,ComponentPad*%
%ADD11O,1.400000X1.400000*%
%TD*%
%TA.AperFunction,ComponentPad*%
%ADD12R,1.700000X1.700000*%
%TD*%
%TA.AperFunction,ComponentPad*%
%ADD13O,1.700000X1.700000*%
%TD*%
%TA.AperFunction,ViaPad*%
%ADD14C,0.800000*%
%TD*%
%TA.AperFunction,Conductor*%
%ADD15C,0.250000*%
%TD*%
G04 APERTURE END LIST*
D10*
%TO.P,10K,1*%
%TO.N,N/C*%
X197400000Y-60010000D03*
D11*
%TO.P,10K,2*%
X197400000Y-52390000D03*
%TD*%
D12*
%TO.P,UART,1*%
%TO.N,N/C*%
X171400000Y-61425000D03*
D13*
%TO.P,UART,2*%
X168860000Y-61425000D03*
%TO.P,UART,3*%
X166320000Y-61425000D03*
%TO.P,UART,4*%
X163780000Y-61425000D03*
%TD*%
D11*
%TO.P,10K,2*%
%TO.N,N/C*%
X180400000Y-47990000D03*
D10*
%TO.P,10K,1*%
X180400000Y-55610000D03*
%TD*%
%TO.P,300K,1*%
%TO.N,N/C*%
X199200000Y-53800000D03*
D11*
%TO.P,300K,2*%
X199200000Y-46180000D03*
%TD*%
%TO.P,3K,2*%
%TO.N,N/C*%
X176000000Y-47980000D03*
D10*
%TO.P,3K,1*%
X176000000Y-55600000D03*
%TD*%
%TO.P,10K,1*%
%TO.N,N/C*%
X178200000Y-55610000D03*
D11*
%TO.P,10K,2*%
X178200000Y-47990000D03*
%TD*%
D14*
%TO.N,*%
X185400000Y-57800000D03*
X169800000Y-52800000D03*
X170400000Y-46400000D03*
X185400000Y-57800000D03*
X166400000Y-51600000D03*
X169000000Y-44800000D03*
X190600000Y-58600000D03*
X181600000Y-58600000D03*
X178200000Y-44800000D03*
X167800000Y-52800000D03*
X182000000Y-43800000D03*
X197600000Y-44800000D03*
X191100000Y-44800000D03*
X188000000Y-44000000D03*
X165200000Y-46400000D03*
X192400000Y-44000000D03*
X169800000Y-51600000D03*
X195200000Y-43600000D03*
%TD*%
D15*
%TO.N,*%
X178200000Y-57800000D02*
X185400000Y-57800000D01*
X191100000Y-44800000D02*
X197600000Y-44800000D01*
X188000000Y-44000000D02*
X182200000Y-44000000D01*
X182200000Y-44000000D02*
X182000000Y-43800000D01*
X169000000Y-44800000D02*
X178200000Y-44800000D01*
X169800000Y-51600000D02*
X166400000Y-51600000D01*
X169800000Y-52800000D02*
X167800000Y-52800000D01*
X170400000Y-46400000D02*
X165200000Y-46400000D01*
X199200000Y-43600000D02*
X195200000Y-43600000D01*
X189000000Y-44800000D02*
X191100000Y-44800000D01*
X181600000Y-58600000D02*
X190600000Y-58600000D01*
X199200000Y-46180000D02*
X199200000Y-43600000D01*
X178200000Y-44800000D02*
X189000000Y-44800000D01*
X192400000Y-44000000D02*
X188000000Y-44000000D01*
X178200000Y-57800000D02*
X178200000Y-55610000D01*
%TD*%
M02*
