%TF.GenerationSoftware,KiCad,Pcbnew,(6.0.11)*%
%TF.CreationDate,2023-02-10T16:12:38-06:00*%
%TF.ProjectId,leapsd,6c656170-7364-42e6-9b69-6361645f7063,rev?*%
%TF.SameCoordinates,Original*%
%TF.FileFunction,Legend,Top*%
%TF.FilePolarity,Positive*%
%FSLAX46Y46*%
G04 Gerber Fmt 4.6, Leading zero omitted, Abs format (unit mm)*
G04 Created by KiCad (PCBNEW (6.0.11)) date 2023-02-10 16:12:38*
%MOMM*%
%LPD*%
G01*
G04 APERTURE LIST*
%ADD10C,0.150000*%
%ADD11C,0.120000*%
%ADD12C,0.010000*%
G04 APERTURE END LIST*
D10*
X160985714Y-63995238D02*
X161795238Y-63995238D01*
X161890476Y-64042857D01*
X161938095Y-64090476D01*
X161985714Y-64185714D01*
X161985714Y-64328571D01*
X161938095Y-64423809D01*
X161604761Y-63995238D02*
X161652380Y-64090476D01*
X161652380Y-64280952D01*
X161604761Y-64376190D01*
X161557142Y-64423809D01*
X161461904Y-64471428D01*
X161176190Y-64471428D01*
X161080952Y-64423809D01*
X161033333Y-64376190D01*
X160985714Y-64280952D01*
X160985714Y-64090476D01*
X161033333Y-63995238D01*
X161652380Y-63519047D02*
X160985714Y-63519047D01*
X160652380Y-63519047D02*
X160700000Y-63566666D01*
X160747619Y-63519047D01*
X160700000Y-63471428D01*
X160652380Y-63519047D01*
X160747619Y-63519047D01*
X160985714Y-63185714D02*
X160985714Y-62804761D01*
X160652380Y-63042857D02*
X161509523Y-63042857D01*
X161604761Y-62995238D01*
X161652380Y-62900000D01*
X161652380Y-62804761D01*
X161652380Y-62471428D02*
X160652380Y-62471428D01*
X161652380Y-62042857D02*
X161128571Y-62042857D01*
X161033333Y-62090476D01*
X160985714Y-62185714D01*
X160985714Y-62328571D01*
X161033333Y-62423809D01*
X161080952Y-62471428D01*
X160985714Y-61138095D02*
X161652380Y-61138095D01*
X160985714Y-61566666D02*
X161509523Y-61566666D01*
X161604761Y-61519047D01*
X161652380Y-61423809D01*
X161652380Y-61280952D01*
X161604761Y-61185714D01*
X161557142Y-61138095D01*
X161652380Y-60661904D02*
X160652380Y-60661904D01*
X161033333Y-60661904D02*
X160985714Y-60566666D01*
X160985714Y-60376190D01*
X161033333Y-60280952D01*
X161080952Y-60233333D01*
X161176190Y-60185714D01*
X161461904Y-60185714D01*
X161557142Y-60233333D01*
X161604761Y-60280952D01*
X161652380Y-60376190D01*
X161652380Y-60566666D01*
X161604761Y-60661904D01*
X161557142Y-59757142D02*
X161604761Y-59709523D01*
X161652380Y-59757142D01*
X161604761Y-59804761D01*
X161557142Y-59757142D01*
X161652380Y-59757142D01*
X161604761Y-58852380D02*
X161652380Y-58947619D01*
X161652380Y-59138095D01*
X161604761Y-59233333D01*
X161557142Y-59280952D01*
X161461904Y-59328571D01*
X161176190Y-59328571D01*
X161080952Y-59280952D01*
X161033333Y-59233333D01*
X160985714Y-59138095D01*
X160985714Y-58947619D01*
X161033333Y-58852380D01*
X161652380Y-58280952D02*
X161604761Y-58376190D01*
X161557142Y-58423809D01*
X161461904Y-58471428D01*
X161176190Y-58471428D01*
X161080952Y-58423809D01*
X161033333Y-58376190D01*
X160985714Y-58280952D01*
X160985714Y-58138095D01*
X161033333Y-58042857D01*
X161080952Y-57995238D01*
X161176190Y-57947619D01*
X161461904Y-57947619D01*
X161557142Y-57995238D01*
X161604761Y-58042857D01*
X161652380Y-58138095D01*
X161652380Y-58280952D01*
X161652380Y-57519047D02*
X160985714Y-57519047D01*
X161080952Y-57519047D02*
X161033333Y-57471428D01*
X160985714Y-57376190D01*
X160985714Y-57233333D01*
X161033333Y-57138095D01*
X161128571Y-57090476D01*
X161652380Y-57090476D01*
X161128571Y-57090476D02*
X161033333Y-57042857D01*
X160985714Y-56947619D01*
X160985714Y-56804761D01*
X161033333Y-56709523D01*
X161128571Y-56661904D01*
X161652380Y-56661904D01*
X160604761Y-55471428D02*
X161890476Y-56328571D01*
X161652380Y-55138095D02*
X160652380Y-55138095D01*
X160652380Y-54900000D01*
X160700000Y-54757142D01*
X160795238Y-54661904D01*
X160890476Y-54614285D01*
X161080952Y-54566666D01*
X161223809Y-54566666D01*
X161414285Y-54614285D01*
X161509523Y-54661904D01*
X161604761Y-54757142D01*
X161652380Y-54900000D01*
X161652380Y-55138095D01*
X161557142Y-53566666D02*
X161604761Y-53614285D01*
X161652380Y-53757142D01*
X161652380Y-53852380D01*
X161604761Y-53995238D01*
X161509523Y-54090476D01*
X161414285Y-54138095D01*
X161223809Y-54185714D01*
X161080952Y-54185714D01*
X160890476Y-54138095D01*
X160795238Y-54090476D01*
X160700000Y-53995238D01*
X160652380Y-53852380D01*
X160652380Y-53757142D01*
X160700000Y-53614285D01*
X160747619Y-53566666D01*
X161128571Y-52804761D02*
X161128571Y-53138095D01*
X161652380Y-53138095D02*
X160652380Y-53138095D01*
X160652380Y-52661904D01*
X160652380Y-52280952D02*
X161461904Y-52280952D01*
X161557142Y-52233333D01*
X161604761Y-52185714D01*
X161652380Y-52090476D01*
X161652380Y-51900000D01*
X161604761Y-51804761D01*
X161557142Y-51757142D01*
X161461904Y-51709523D01*
X160652380Y-51709523D01*
X161652380Y-51233333D02*
X160652380Y-51233333D01*
X161652380Y-50661904D02*
X161080952Y-51090476D01*
X160652380Y-50661904D02*
X161223809Y-51233333D01*
X161604761Y-50280952D02*
X161652380Y-50138095D01*
X161652380Y-49900000D01*
X161604761Y-49804761D01*
X161557142Y-49757142D01*
X161461904Y-49709523D01*
X161366666Y-49709523D01*
X161271428Y-49757142D01*
X161223809Y-49804761D01*
X161176190Y-49900000D01*
X161128571Y-50090476D01*
X161080952Y-50185714D01*
X161033333Y-50233333D01*
X160938095Y-50280952D01*
X160842857Y-50280952D01*
X160747619Y-50233333D01*
X160700000Y-50185714D01*
X160652380Y-50090476D01*
X160652380Y-49852380D01*
X160700000Y-49709523D01*
X160652380Y-49280952D02*
X161461904Y-49280952D01*
X161557142Y-49233333D01*
X161604761Y-49185714D01*
X161652380Y-49090476D01*
X161652380Y-48900000D01*
X161604761Y-48804761D01*
X161557142Y-48757142D01*
X161461904Y-48709523D01*
X160652380Y-48709523D01*
X161652380Y-47661904D02*
X161176190Y-47995238D01*
X161652380Y-48233333D02*
X160652380Y-48233333D01*
X160652380Y-47852380D01*
X160700000Y-47757142D01*
X160747619Y-47709523D01*
X160842857Y-47661904D01*
X160985714Y-47661904D01*
X161080952Y-47709523D01*
X161128571Y-47757142D01*
X161176190Y-47852380D01*
X161176190Y-48233333D01*
X161652380Y-47233333D02*
X160652380Y-47233333D01*
X161366666Y-46900000D01*
X160652380Y-46566666D01*
X161652380Y-46566666D01*
X160652380Y-45900000D02*
X160652380Y-45709523D01*
X160700000Y-45614285D01*
X160795238Y-45519047D01*
X160985714Y-45471428D01*
X161319047Y-45471428D01*
X161509523Y-45519047D01*
X161604761Y-45614285D01*
X161652380Y-45709523D01*
X161652380Y-45900000D01*
X161604761Y-45995238D01*
X161509523Y-46090476D01*
X161319047Y-46138095D01*
X160985714Y-46138095D01*
X160795238Y-46090476D01*
X160700000Y-45995238D01*
X160652380Y-45900000D01*
X161652380Y-45042857D02*
X160652380Y-45042857D01*
X161366666Y-44709523D01*
X160652380Y-44376190D01*
X161652380Y-44376190D01*
X158452380Y-63590476D02*
X158452380Y-64066666D01*
X157452380Y-64066666D01*
X158404761Y-62876190D02*
X158452380Y-62971428D01*
X158452380Y-63161904D01*
X158404761Y-63257142D01*
X158309523Y-63304761D01*
X157928571Y-63304761D01*
X157833333Y-63257142D01*
X157785714Y-63161904D01*
X157785714Y-62971428D01*
X157833333Y-62876190D01*
X157928571Y-62828571D01*
X158023809Y-62828571D01*
X158119047Y-63304761D01*
X158452380Y-61971428D02*
X157928571Y-61971428D01*
X157833333Y-62019047D01*
X157785714Y-62114285D01*
X157785714Y-62304761D01*
X157833333Y-62400000D01*
X158404761Y-61971428D02*
X158452380Y-62066666D01*
X158452380Y-62304761D01*
X158404761Y-62400000D01*
X158309523Y-62447619D01*
X158214285Y-62447619D01*
X158119047Y-62400000D01*
X158071428Y-62304761D01*
X158071428Y-62066666D01*
X158023809Y-61971428D01*
X157785714Y-61495238D02*
X158785714Y-61495238D01*
X157833333Y-61495238D02*
X157785714Y-61400000D01*
X157785714Y-61209523D01*
X157833333Y-61114285D01*
X157880952Y-61066666D01*
X157976190Y-61019047D01*
X158261904Y-61019047D01*
X158357142Y-61066666D01*
X158404761Y-61114285D01*
X158452380Y-61209523D01*
X158452380Y-61400000D01*
X158404761Y-61495238D01*
X157785714Y-60733333D02*
X157785714Y-60352380D01*
X158452380Y-60590476D02*
X157595238Y-60590476D01*
X157500000Y-60542857D01*
X157452380Y-60447619D01*
X157452380Y-60352380D01*
X158452380Y-60019047D02*
X157785714Y-60019047D01*
X157976190Y-60019047D02*
X157880952Y-59971428D01*
X157833333Y-59923809D01*
X157785714Y-59828571D01*
X157785714Y-59733333D01*
X158452380Y-59257142D02*
X158404761Y-59352380D01*
X158357142Y-59400000D01*
X158261904Y-59447619D01*
X157976190Y-59447619D01*
X157880952Y-59400000D01*
X157833333Y-59352380D01*
X157785714Y-59257142D01*
X157785714Y-59114285D01*
X157833333Y-59019047D01*
X157880952Y-58971428D01*
X157976190Y-58923809D01*
X158261904Y-58923809D01*
X158357142Y-58971428D01*
X158404761Y-59019047D01*
X158452380Y-59114285D01*
X158452380Y-59257142D01*
X157785714Y-58066666D02*
X158595238Y-58066666D01*
X158690476Y-58114285D01*
X158738095Y-58161904D01*
X158785714Y-58257142D01*
X158785714Y-58400000D01*
X158738095Y-58495238D01*
X158404761Y-58066666D02*
X158452380Y-58161904D01*
X158452380Y-58352380D01*
X158404761Y-58447619D01*
X158357142Y-58495238D01*
X158261904Y-58542857D01*
X157976190Y-58542857D01*
X157880952Y-58495238D01*
X157833333Y-58447619D01*
X157785714Y-58352380D01*
X157785714Y-58161904D01*
X157833333Y-58066666D01*
X158404761Y-56876190D02*
X158452380Y-56733333D01*
X158452380Y-56495238D01*
X158404761Y-56400000D01*
X158357142Y-56352380D01*
X158261904Y-56304761D01*
X158166666Y-56304761D01*
X158071428Y-56352380D01*
X158023809Y-56400000D01*
X157976190Y-56495238D01*
X157928571Y-56685714D01*
X157880952Y-56780952D01*
X157833333Y-56828571D01*
X157738095Y-56876190D01*
X157642857Y-56876190D01*
X157547619Y-56828571D01*
X157500000Y-56780952D01*
X157452380Y-56685714D01*
X157452380Y-56447619D01*
X157500000Y-56304761D01*
X158452380Y-55876190D02*
X157452380Y-55876190D01*
X157452380Y-55638095D01*
X157500000Y-55495238D01*
X157595238Y-55400000D01*
X157690476Y-55352380D01*
X157880952Y-55304761D01*
X158023809Y-55304761D01*
X158214285Y-55352380D01*
X158309523Y-55400000D01*
X158404761Y-55495238D01*
X158452380Y-55638095D01*
X158452380Y-55876190D01*
X158357142Y-53542857D02*
X158404761Y-53590476D01*
X158452380Y-53733333D01*
X158452380Y-53828571D01*
X158404761Y-53971428D01*
X158309523Y-54066666D01*
X158214285Y-54114285D01*
X158023809Y-54161904D01*
X157880952Y-54161904D01*
X157690476Y-54114285D01*
X157595238Y-54066666D01*
X157500000Y-53971428D01*
X157452380Y-53828571D01*
X157452380Y-53733333D01*
X157500000Y-53590476D01*
X157547619Y-53542857D01*
X158452380Y-52685714D02*
X157928571Y-52685714D01*
X157833333Y-52733333D01*
X157785714Y-52828571D01*
X157785714Y-53019047D01*
X157833333Y-53114285D01*
X158404761Y-52685714D02*
X158452380Y-52780952D01*
X158452380Y-53019047D01*
X158404761Y-53114285D01*
X158309523Y-53161904D01*
X158214285Y-53161904D01*
X158119047Y-53114285D01*
X158071428Y-53019047D01*
X158071428Y-52780952D01*
X158023809Y-52685714D01*
X158452380Y-52209523D02*
X157785714Y-52209523D01*
X157976190Y-52209523D02*
X157880952Y-52161904D01*
X157833333Y-52114285D01*
X157785714Y-52019047D01*
X157785714Y-51923809D01*
X158452380Y-51161904D02*
X157452380Y-51161904D01*
X158404761Y-51161904D02*
X158452380Y-51257142D01*
X158452380Y-51447619D01*
X158404761Y-51542857D01*
X158357142Y-51590476D01*
X158261904Y-51638095D01*
X157976190Y-51638095D01*
X157880952Y-51590476D01*
X157833333Y-51542857D01*
X157785714Y-51447619D01*
X157785714Y-51257142D01*
X157833333Y-51161904D01*
X158166666Y-49971428D02*
X158166666Y-49495238D01*
X158452380Y-50066666D02*
X157452380Y-49733333D01*
X158452380Y-49400000D01*
X158452380Y-48638095D02*
X157452380Y-48638095D01*
X158404761Y-48638095D02*
X158452380Y-48733333D01*
X158452380Y-48923809D01*
X158404761Y-49019047D01*
X158357142Y-49066666D01*
X158261904Y-49114285D01*
X157976190Y-49114285D01*
X157880952Y-49066666D01*
X157833333Y-49019047D01*
X157785714Y-48923809D01*
X157785714Y-48733333D01*
X157833333Y-48638095D01*
X158452380Y-47733333D02*
X157928571Y-47733333D01*
X157833333Y-47780952D01*
X157785714Y-47876190D01*
X157785714Y-48066666D01*
X157833333Y-48161904D01*
X158404761Y-47733333D02*
X158452380Y-47828571D01*
X158452380Y-48066666D01*
X158404761Y-48161904D01*
X158309523Y-48209523D01*
X158214285Y-48209523D01*
X158119047Y-48161904D01*
X158071428Y-48066666D01*
X158071428Y-47828571D01*
X158023809Y-47733333D01*
X157785714Y-47257142D02*
X158785714Y-47257142D01*
X157833333Y-47257142D02*
X157785714Y-47161904D01*
X157785714Y-46971428D01*
X157833333Y-46876190D01*
X157880952Y-46828571D01*
X157976190Y-46780952D01*
X158261904Y-46780952D01*
X158357142Y-46828571D01*
X158404761Y-46876190D01*
X158452380Y-46971428D01*
X158452380Y-47161904D01*
X158404761Y-47257142D01*
X157785714Y-46495238D02*
X157785714Y-46114285D01*
X157452380Y-46352380D02*
X158309523Y-46352380D01*
X158404761Y-46304761D01*
X158452380Y-46209523D01*
X158452380Y-46114285D01*
X158452380Y-45638095D02*
X158404761Y-45733333D01*
X158357142Y-45780952D01*
X158261904Y-45828571D01*
X157976190Y-45828571D01*
X157880952Y-45780952D01*
X157833333Y-45733333D01*
X157785714Y-45638095D01*
X157785714Y-45495238D01*
X157833333Y-45400000D01*
X157880952Y-45352380D01*
X157976190Y-45304761D01*
X158261904Y-45304761D01*
X158357142Y-45352380D01*
X158404761Y-45400000D01*
X158452380Y-45495238D01*
X158452380Y-45638095D01*
X158452380Y-44876190D02*
X157785714Y-44876190D01*
X157976190Y-44876190D02*
X157880952Y-44828571D01*
X157833333Y-44780952D01*
X157785714Y-44685714D01*
X157785714Y-44590476D01*
X175771428Y-46452380D02*
X175295238Y-46452380D01*
X175295238Y-45452380D01*
X176104761Y-45928571D02*
X176438095Y-45928571D01*
X176580952Y-46452380D02*
X176104761Y-46452380D01*
X176104761Y-45452380D01*
X176580952Y-45452380D01*
X176961904Y-46166666D02*
X177438095Y-46166666D01*
X176866666Y-46452380D02*
X177200000Y-45452380D01*
X177533333Y-46452380D01*
X177866666Y-46452380D02*
X177866666Y-45452380D01*
X178247619Y-45452380D01*
X178342857Y-45500000D01*
X178390476Y-45547619D01*
X178438095Y-45642857D01*
X178438095Y-45785714D01*
X178390476Y-45880952D01*
X178342857Y-45928571D01*
X178247619Y-45976190D01*
X177866666Y-45976190D01*
X179580952Y-46404761D02*
X179723809Y-46452380D01*
X179961904Y-46452380D01*
X180057142Y-46404761D01*
X180104761Y-46357142D01*
X180152380Y-46261904D01*
X180152380Y-46166666D01*
X180104761Y-46071428D01*
X180057142Y-46023809D01*
X179961904Y-45976190D01*
X179771428Y-45928571D01*
X179676190Y-45880952D01*
X179628571Y-45833333D01*
X179580952Y-45738095D01*
X179580952Y-45642857D01*
X179628571Y-45547619D01*
X179676190Y-45500000D01*
X179771428Y-45452380D01*
X180009523Y-45452380D01*
X180152380Y-45500000D01*
X180580952Y-46452380D02*
X180580952Y-45452380D01*
X180819047Y-45452380D01*
X180961904Y-45500000D01*
X181057142Y-45595238D01*
X181104761Y-45690476D01*
X181152380Y-45880952D01*
X181152380Y-46023809D01*
X181104761Y-46214285D01*
X181057142Y-46309523D01*
X180961904Y-46404761D01*
X180819047Y-46452380D01*
X180580952Y-46452380D01*
X159528571Y-60909523D02*
X159576190Y-60766666D01*
X159623809Y-60719047D01*
X159719047Y-60671428D01*
X159861904Y-60671428D01*
X159957142Y-60719047D01*
X160004761Y-60766666D01*
X160052380Y-60861904D01*
X160052380Y-61242857D01*
X159052380Y-61242857D01*
X159052380Y-60909523D01*
X159100000Y-60814285D01*
X159147619Y-60766666D01*
X159242857Y-60719047D01*
X159338095Y-60719047D01*
X159433333Y-60766666D01*
X159480952Y-60814285D01*
X159528571Y-60909523D01*
X159528571Y-61242857D01*
X159385714Y-60338095D02*
X160052380Y-60100000D01*
X159385714Y-59861904D02*
X160052380Y-60100000D01*
X160290476Y-60195238D01*
X160338095Y-60242857D01*
X160385714Y-60338095D01*
X160052380Y-58719047D02*
X159052380Y-58719047D01*
X159052380Y-58480952D01*
X159100000Y-58338095D01*
X159195238Y-58242857D01*
X159290476Y-58195238D01*
X159480952Y-58147619D01*
X159623809Y-58147619D01*
X159814285Y-58195238D01*
X159909523Y-58242857D01*
X160004761Y-58338095D01*
X160052380Y-58480952D01*
X160052380Y-58719047D01*
X159957142Y-57147619D02*
X160004761Y-57195238D01*
X160052380Y-57338095D01*
X160052380Y-57433333D01*
X160004761Y-57576190D01*
X159909523Y-57671428D01*
X159814285Y-57719047D01*
X159623809Y-57766666D01*
X159480952Y-57766666D01*
X159290476Y-57719047D01*
X159195238Y-57671428D01*
X159100000Y-57576190D01*
X159052380Y-57433333D01*
X159052380Y-57338095D01*
X159100000Y-57195238D01*
X159147619Y-57147619D01*
X159528571Y-56385714D02*
X159528571Y-56719047D01*
X160052380Y-56719047D02*
X159052380Y-56719047D01*
X159052380Y-56242857D01*
X159052380Y-55861904D02*
X159861904Y-55861904D01*
X159957142Y-55814285D01*
X160004761Y-55766666D01*
X160052380Y-55671428D01*
X160052380Y-55480952D01*
X160004761Y-55385714D01*
X159957142Y-55338095D01*
X159861904Y-55290476D01*
X159052380Y-55290476D01*
X160052380Y-54814285D02*
X159052380Y-54814285D01*
X160052380Y-54242857D02*
X159480952Y-54671428D01*
X159052380Y-54242857D02*
X159623809Y-54814285D01*
X160004761Y-53861904D02*
X160052380Y-53719047D01*
X160052380Y-53480952D01*
X160004761Y-53385714D01*
X159957142Y-53338095D01*
X159861904Y-53290476D01*
X159766666Y-53290476D01*
X159671428Y-53338095D01*
X159623809Y-53385714D01*
X159576190Y-53480952D01*
X159528571Y-53671428D01*
X159480952Y-53766666D01*
X159433333Y-53814285D01*
X159338095Y-53861904D01*
X159242857Y-53861904D01*
X159147619Y-53814285D01*
X159100000Y-53766666D01*
X159052380Y-53671428D01*
X159052380Y-53433333D01*
X159100000Y-53290476D01*
X159052380Y-52861904D02*
X159861904Y-52861904D01*
X159957142Y-52814285D01*
X160004761Y-52766666D01*
X160052380Y-52671428D01*
X160052380Y-52480952D01*
X160004761Y-52385714D01*
X159957142Y-52338095D01*
X159861904Y-52290476D01*
X159052380Y-52290476D01*
X160052380Y-51242857D02*
X159576190Y-51576190D01*
X160052380Y-51814285D02*
X159052380Y-51814285D01*
X159052380Y-51433333D01*
X159100000Y-51338095D01*
X159147619Y-51290476D01*
X159242857Y-51242857D01*
X159385714Y-51242857D01*
X159480952Y-51290476D01*
X159528571Y-51338095D01*
X159576190Y-51433333D01*
X159576190Y-51814285D01*
X160052380Y-50814285D02*
X159052380Y-50814285D01*
X159766666Y-50480952D01*
X159052380Y-50147619D01*
X160052380Y-50147619D01*
X159052380Y-49480952D02*
X159052380Y-49290476D01*
X159100000Y-49195238D01*
X159195238Y-49100000D01*
X159385714Y-49052380D01*
X159719047Y-49052380D01*
X159909523Y-49100000D01*
X160004761Y-49195238D01*
X160052380Y-49290476D01*
X160052380Y-49480952D01*
X160004761Y-49576190D01*
X159909523Y-49671428D01*
X159719047Y-49719047D01*
X159385714Y-49719047D01*
X159195238Y-49671428D01*
X159100000Y-49576190D01*
X159052380Y-49480952D01*
X160052380Y-48623809D02*
X159052380Y-48623809D01*
X159766666Y-48290476D01*
X159052380Y-47957142D01*
X160052380Y-47957142D01*
%TO.C,1*%
X159085714Y-43652380D02*
X158514285Y-43652380D01*
X158800000Y-43652380D02*
X158800000Y-42652380D01*
X158704761Y-42795238D01*
X158609523Y-42890476D01*
X158514285Y-42938095D01*
X198390476Y-42252380D02*
X199009523Y-42252380D01*
X198676190Y-42633333D01*
X198819047Y-42633333D01*
X198914285Y-42680952D01*
X198961904Y-42728571D01*
X199009523Y-42823809D01*
X199009523Y-43061904D01*
X198961904Y-43157142D01*
X198914285Y-43204761D01*
X198819047Y-43252380D01*
X198533333Y-43252380D01*
X198438095Y-43204761D01*
X198390476Y-43157142D01*
X199628571Y-42252380D02*
X199723809Y-42252380D01*
X199819047Y-42300000D01*
X199866666Y-42347619D01*
X199914285Y-42442857D01*
X199961904Y-42633333D01*
X199961904Y-42871428D01*
X199914285Y-43061904D01*
X199866666Y-43157142D01*
X199819047Y-43204761D01*
X199723809Y-43252380D01*
X199628571Y-43252380D01*
X199533333Y-43204761D01*
X199485714Y-43157142D01*
X199438095Y-43061904D01*
X199390476Y-42871428D01*
X199390476Y-42633333D01*
X199438095Y-42442857D01*
X199485714Y-42347619D01*
X199533333Y-42300000D01*
X199628571Y-42252380D01*
%TO.C,10K*%
X197852380Y-56890476D02*
X197852380Y-57461904D01*
X197852380Y-57176190D02*
X196852380Y-57176190D01*
X196995238Y-57271428D01*
X197090476Y-57366666D01*
X197138095Y-57461904D01*
X196852380Y-56271428D02*
X196852380Y-56176190D01*
X196900000Y-56080952D01*
X196947619Y-56033333D01*
X197042857Y-55985714D01*
X197233333Y-55938095D01*
X197471428Y-55938095D01*
X197661904Y-55985714D01*
X197757142Y-56033333D01*
X197804761Y-56080952D01*
X197852380Y-56176190D01*
X197852380Y-56271428D01*
X197804761Y-56366666D01*
X197757142Y-56414285D01*
X197661904Y-56461904D01*
X197471428Y-56509523D01*
X197233333Y-56509523D01*
X197042857Y-56461904D01*
X196947619Y-56414285D01*
X196900000Y-56366666D01*
X196852380Y-56271428D01*
X197852380Y-55509523D02*
X196852380Y-55509523D01*
X197852380Y-54938095D02*
X197280952Y-55366666D01*
X196852380Y-54938095D02*
X197423809Y-55509523D01*
%TO.C,UART*%
X173122380Y-65195238D02*
X173931904Y-65195238D01*
X174027142Y-65147619D01*
X174074761Y-65100000D01*
X174122380Y-65004761D01*
X174122380Y-64814285D01*
X174074761Y-64719047D01*
X174027142Y-64671428D01*
X173931904Y-64623809D01*
X173122380Y-64623809D01*
X173836666Y-64195238D02*
X173836666Y-63719047D01*
X174122380Y-64290476D02*
X173122380Y-63957142D01*
X174122380Y-63623809D01*
X174122380Y-62719047D02*
X173646190Y-63052380D01*
X174122380Y-63290476D02*
X173122380Y-63290476D01*
X173122380Y-62909523D01*
X173170000Y-62814285D01*
X173217619Y-62766666D01*
X173312857Y-62719047D01*
X173455714Y-62719047D01*
X173550952Y-62766666D01*
X173598571Y-62814285D01*
X173646190Y-62909523D01*
X173646190Y-63290476D01*
X173122380Y-62433333D02*
X173122380Y-61861904D01*
X174122380Y-62147619D02*
X173122380Y-62147619D01*
X164300000Y-58238095D02*
X164347619Y-58142857D01*
X164347619Y-58000000D01*
X164300000Y-57857142D01*
X164204761Y-57761904D01*
X164109523Y-57714285D01*
X163919047Y-57666666D01*
X163776190Y-57666666D01*
X163585714Y-57714285D01*
X163490476Y-57761904D01*
X163395238Y-57857142D01*
X163347619Y-58000000D01*
X163347619Y-58095238D01*
X163395238Y-58238095D01*
X163442857Y-58285714D01*
X163776190Y-58285714D01*
X163776190Y-58095238D01*
X163347619Y-58714285D02*
X164347619Y-58714285D01*
X163347619Y-59285714D01*
X164347619Y-59285714D01*
X163347619Y-59761904D02*
X164347619Y-59761904D01*
X164347619Y-60000000D01*
X164300000Y-60142857D01*
X164204761Y-60238095D01*
X164109523Y-60285714D01*
X163919047Y-60333333D01*
X163776190Y-60333333D01*
X163585714Y-60285714D01*
X163490476Y-60238095D01*
X163395238Y-60142857D01*
X163347619Y-60000000D01*
X163347619Y-59761904D01*
X166747619Y-58638095D02*
X166747619Y-59209523D01*
X165747619Y-58923809D02*
X166747619Y-58923809D01*
X166747619Y-59447619D02*
X165747619Y-60114285D01*
X166747619Y-60114285D02*
X165747619Y-59447619D01*
X171947619Y-57348809D02*
X171947619Y-57967857D01*
X171566666Y-57634523D01*
X171566666Y-57777380D01*
X171519047Y-57872619D01*
X171471428Y-57920238D01*
X171376190Y-57967857D01*
X171138095Y-57967857D01*
X171042857Y-57920238D01*
X170995238Y-57872619D01*
X170947619Y-57777380D01*
X170947619Y-57491666D01*
X170995238Y-57396428D01*
X171042857Y-57348809D01*
X171042857Y-58396428D02*
X170995238Y-58444047D01*
X170947619Y-58396428D01*
X170995238Y-58348809D01*
X171042857Y-58396428D01*
X170947619Y-58396428D01*
X171947619Y-58777380D02*
X171947619Y-59396428D01*
X171566666Y-59063095D01*
X171566666Y-59205952D01*
X171519047Y-59301190D01*
X171471428Y-59348809D01*
X171376190Y-59396428D01*
X171138095Y-59396428D01*
X171042857Y-59348809D01*
X170995238Y-59301190D01*
X170947619Y-59205952D01*
X170947619Y-58920238D01*
X170995238Y-58825000D01*
X171042857Y-58777380D01*
X171947619Y-59682142D02*
X170947619Y-60015476D01*
X171947619Y-60348809D01*
X168347619Y-59233333D02*
X168823809Y-58900000D01*
X168347619Y-58661904D02*
X169347619Y-58661904D01*
X169347619Y-59042857D01*
X169300000Y-59138095D01*
X169252380Y-59185714D01*
X169157142Y-59233333D01*
X169014285Y-59233333D01*
X168919047Y-59185714D01*
X168871428Y-59138095D01*
X168823809Y-59042857D01*
X168823809Y-58661904D01*
X169347619Y-59566666D02*
X168347619Y-60233333D01*
X169347619Y-60233333D02*
X168347619Y-59566666D01*
%TO.C,10K*%
X180852380Y-52490476D02*
X180852380Y-53061904D01*
X180852380Y-52776190D02*
X179852380Y-52776190D01*
X179995238Y-52871428D01*
X180090476Y-52966666D01*
X180138095Y-53061904D01*
X179852380Y-51871428D02*
X179852380Y-51776190D01*
X179900000Y-51680952D01*
X179947619Y-51633333D01*
X180042857Y-51585714D01*
X180233333Y-51538095D01*
X180471428Y-51538095D01*
X180661904Y-51585714D01*
X180757142Y-51633333D01*
X180804761Y-51680952D01*
X180852380Y-51776190D01*
X180852380Y-51871428D01*
X180804761Y-51966666D01*
X180757142Y-52014285D01*
X180661904Y-52061904D01*
X180471428Y-52109523D01*
X180233333Y-52109523D01*
X180042857Y-52061904D01*
X179947619Y-52014285D01*
X179900000Y-51966666D01*
X179852380Y-51871428D01*
X180852380Y-51109523D02*
X179852380Y-51109523D01*
X180852380Y-50538095D02*
X180280952Y-50966666D01*
X179852380Y-50538095D02*
X180423809Y-51109523D01*
%TO.C,300K*%
X198652380Y-51775714D02*
X198652380Y-51156666D01*
X199033333Y-51490000D01*
X199033333Y-51347142D01*
X199080952Y-51251904D01*
X199128571Y-51204285D01*
X199223809Y-51156666D01*
X199461904Y-51156666D01*
X199557142Y-51204285D01*
X199604761Y-51251904D01*
X199652380Y-51347142D01*
X199652380Y-51632857D01*
X199604761Y-51728095D01*
X199557142Y-51775714D01*
X198652380Y-50537619D02*
X198652380Y-50442380D01*
X198700000Y-50347142D01*
X198747619Y-50299523D01*
X198842857Y-50251904D01*
X199033333Y-50204285D01*
X199271428Y-50204285D01*
X199461904Y-50251904D01*
X199557142Y-50299523D01*
X199604761Y-50347142D01*
X199652380Y-50442380D01*
X199652380Y-50537619D01*
X199604761Y-50632857D01*
X199557142Y-50680476D01*
X199461904Y-50728095D01*
X199271428Y-50775714D01*
X199033333Y-50775714D01*
X198842857Y-50728095D01*
X198747619Y-50680476D01*
X198700000Y-50632857D01*
X198652380Y-50537619D01*
X198652380Y-49585238D02*
X198652380Y-49490000D01*
X198700000Y-49394761D01*
X198747619Y-49347142D01*
X198842857Y-49299523D01*
X199033333Y-49251904D01*
X199271428Y-49251904D01*
X199461904Y-49299523D01*
X199557142Y-49347142D01*
X199604761Y-49394761D01*
X199652380Y-49490000D01*
X199652380Y-49585238D01*
X199604761Y-49680476D01*
X199557142Y-49728095D01*
X199461904Y-49775714D01*
X199271428Y-49823333D01*
X199033333Y-49823333D01*
X198842857Y-49775714D01*
X198747619Y-49728095D01*
X198700000Y-49680476D01*
X198652380Y-49585238D01*
X199652380Y-48823333D02*
X198652380Y-48823333D01*
X199652380Y-48251904D02*
X199080952Y-48680476D01*
X198652380Y-48251904D02*
X199223809Y-48823333D01*
%TO.C,Micro SD*%
X186080952Y-54652380D02*
X186080952Y-53652380D01*
X186414285Y-54366666D01*
X186747619Y-53652380D01*
X186747619Y-54652380D01*
X187223809Y-54652380D02*
X187223809Y-53985714D01*
X187223809Y-53652380D02*
X187176190Y-53700000D01*
X187223809Y-53747619D01*
X187271428Y-53700000D01*
X187223809Y-53652380D01*
X187223809Y-53747619D01*
X188128571Y-54604761D02*
X188033333Y-54652380D01*
X187842857Y-54652380D01*
X187747619Y-54604761D01*
X187700000Y-54557142D01*
X187652380Y-54461904D01*
X187652380Y-54176190D01*
X187700000Y-54080952D01*
X187747619Y-54033333D01*
X187842857Y-53985714D01*
X188033333Y-53985714D01*
X188128571Y-54033333D01*
X188557142Y-54652380D02*
X188557142Y-53985714D01*
X188557142Y-54176190D02*
X188604761Y-54080952D01*
X188652380Y-54033333D01*
X188747619Y-53985714D01*
X188842857Y-53985714D01*
X189319047Y-54652380D02*
X189223809Y-54604761D01*
X189176190Y-54557142D01*
X189128571Y-54461904D01*
X189128571Y-54176190D01*
X189176190Y-54080952D01*
X189223809Y-54033333D01*
X189319047Y-53985714D01*
X189461904Y-53985714D01*
X189557142Y-54033333D01*
X189604761Y-54080952D01*
X189652380Y-54176190D01*
X189652380Y-54461904D01*
X189604761Y-54557142D01*
X189557142Y-54604761D01*
X189461904Y-54652380D01*
X189319047Y-54652380D01*
X190795238Y-54604761D02*
X190938095Y-54652380D01*
X191176190Y-54652380D01*
X191271428Y-54604761D01*
X191319047Y-54557142D01*
X191366666Y-54461904D01*
X191366666Y-54366666D01*
X191319047Y-54271428D01*
X191271428Y-54223809D01*
X191176190Y-54176190D01*
X190985714Y-54128571D01*
X190890476Y-54080952D01*
X190842857Y-54033333D01*
X190795238Y-53938095D01*
X190795238Y-53842857D01*
X190842857Y-53747619D01*
X190890476Y-53700000D01*
X190985714Y-53652380D01*
X191223809Y-53652380D01*
X191366666Y-53700000D01*
X191795238Y-54652380D02*
X191795238Y-53652380D01*
X192033333Y-53652380D01*
X192176190Y-53700000D01*
X192271428Y-53795238D01*
X192319047Y-53890476D01*
X192366666Y-54080952D01*
X192366666Y-54223809D01*
X192319047Y-54414285D01*
X192271428Y-54509523D01*
X192176190Y-54604761D01*
X192033333Y-54652380D01*
X191795238Y-54652380D01*
%TO.C,3K*%
X175452380Y-52623333D02*
X175452380Y-52004285D01*
X175833333Y-52337619D01*
X175833333Y-52194761D01*
X175880952Y-52099523D01*
X175928571Y-52051904D01*
X176023809Y-52004285D01*
X176261904Y-52004285D01*
X176357142Y-52051904D01*
X176404761Y-52099523D01*
X176452380Y-52194761D01*
X176452380Y-52480476D01*
X176404761Y-52575714D01*
X176357142Y-52623333D01*
X176452380Y-51575714D02*
X175452380Y-51575714D01*
X176452380Y-51004285D02*
X175880952Y-51432857D01*
X175452380Y-51004285D02*
X176023809Y-51575714D01*
%TO.C,10K*%
X178652380Y-52490476D02*
X178652380Y-53061904D01*
X178652380Y-52776190D02*
X177652380Y-52776190D01*
X177795238Y-52871428D01*
X177890476Y-52966666D01*
X177938095Y-53061904D01*
X177652380Y-51871428D02*
X177652380Y-51776190D01*
X177700000Y-51680952D01*
X177747619Y-51633333D01*
X177842857Y-51585714D01*
X178033333Y-51538095D01*
X178271428Y-51538095D01*
X178461904Y-51585714D01*
X178557142Y-51633333D01*
X178604761Y-51680952D01*
X178652380Y-51776190D01*
X178652380Y-51871428D01*
X178604761Y-51966666D01*
X178557142Y-52014285D01*
X178461904Y-52061904D01*
X178271428Y-52109523D01*
X178033333Y-52109523D01*
X177842857Y-52061904D01*
X177747619Y-52014285D01*
X177700000Y-51966666D01*
X177652380Y-51871428D01*
X178652380Y-51109523D02*
X177652380Y-51109523D01*
X178652380Y-50538095D02*
X178080952Y-50966666D01*
X177652380Y-50538095D02*
X178223809Y-51109523D01*
D11*
X198320000Y-58120000D02*
X198320000Y-54280000D01*
X198320000Y-54280000D02*
X196480000Y-54280000D01*
X197400000Y-53330000D02*
X197400000Y-54280000D01*
X196480000Y-54280000D02*
X196480000Y-58120000D01*
X196480000Y-58120000D02*
X198320000Y-58120000D01*
X197400000Y-59070000D02*
X197400000Y-58120000D01*
%TO.C,UART*%
X171780000Y-62535000D02*
X171780000Y-62865000D01*
X168480000Y-62467929D02*
X168480000Y-62865000D01*
X163400000Y-71525000D02*
X163400000Y-65525000D01*
X171780000Y-65525000D02*
X171780000Y-71525000D01*
X171360000Y-65525000D02*
X171360000Y-71525000D01*
X163400000Y-62467929D02*
X163400000Y-62865000D01*
X171400000Y-60155000D02*
X172670000Y-60155000D01*
X171480000Y-65525000D02*
X171480000Y-71525000D01*
X168480000Y-71525000D02*
X168480000Y-65525000D01*
X169240000Y-65525000D02*
X169240000Y-71525000D01*
X171020000Y-71525000D02*
X171020000Y-65525000D01*
X167590000Y-62865000D02*
X167590000Y-65525000D01*
X165050000Y-62865000D02*
X165050000Y-65525000D01*
X171600000Y-65525000D02*
X171600000Y-71525000D01*
X169240000Y-62467929D02*
X169240000Y-62865000D01*
X165940000Y-62467929D02*
X165940000Y-62865000D01*
X171780000Y-71525000D02*
X171020000Y-71525000D01*
X166700000Y-62467929D02*
X166700000Y-62865000D01*
X170130000Y-62865000D02*
X170130000Y-65525000D01*
X166700000Y-65525000D02*
X166700000Y-71525000D01*
X164160000Y-62467929D02*
X164160000Y-62865000D01*
X172730000Y-62865000D02*
X162450000Y-62865000D01*
X172670000Y-60155000D02*
X172670000Y-61425000D01*
X171240000Y-65525000D02*
X171240000Y-71525000D01*
X164160000Y-65525000D02*
X164160000Y-71525000D01*
X162450000Y-62865000D02*
X162450000Y-65525000D01*
X164160000Y-71525000D02*
X163400000Y-71525000D01*
X165940000Y-71525000D02*
X165940000Y-65525000D01*
X166700000Y-71525000D02*
X165940000Y-71525000D01*
X171120000Y-65525000D02*
X171120000Y-71525000D01*
X171720000Y-65525000D02*
X171720000Y-71525000D01*
X171020000Y-62535000D02*
X171020000Y-62865000D01*
X172730000Y-65525000D02*
X172730000Y-62865000D01*
X162450000Y-65525000D02*
X172730000Y-65525000D01*
X169240000Y-71525000D02*
X168480000Y-71525000D01*
%TO.C,REF\u002A\u002A*%
G36*
X173607629Y-65837906D02*
G01*
X173614322Y-65789163D01*
X173625960Y-65753288D01*
X173643853Y-65721548D01*
X173647808Y-65715648D01*
X173714267Y-65636104D01*
X173786685Y-65589929D01*
X173874849Y-65571599D01*
X173904787Y-65570703D01*
X174016886Y-65587256D01*
X174108464Y-65635409D01*
X174176049Y-65712905D01*
X174200057Y-65762727D01*
X174218738Y-65837533D01*
X174228301Y-65932052D01*
X174229208Y-66035210D01*
X174221921Y-66135935D01*
X174206903Y-66223153D01*
X174184615Y-66285791D01*
X174177765Y-66296579D01*
X174096632Y-66377105D01*
X174000266Y-66425336D01*
X173895701Y-66439450D01*
X173789968Y-66417629D01*
X173760543Y-66404547D01*
X173703241Y-66364231D01*
X173652950Y-66310775D01*
X173648197Y-66303995D01*
X173628878Y-66271321D01*
X173616108Y-66236394D01*
X173608564Y-66190414D01*
X173604924Y-66124584D01*
X173603865Y-66030105D01*
X173603846Y-66008923D01*
X173603894Y-66002182D01*
X173799231Y-66002182D01*
X173800368Y-66091349D01*
X173804841Y-66150520D01*
X173814246Y-66188741D01*
X173830176Y-66215053D01*
X173838308Y-66223846D01*
X173885058Y-66257261D01*
X173930447Y-66255737D01*
X173976340Y-66226752D01*
X174003712Y-66195809D01*
X174019923Y-66150643D01*
X174029026Y-66079420D01*
X174029651Y-66071114D01*
X174031204Y-65942037D01*
X174014965Y-65846172D01*
X173981152Y-65784107D01*
X173929984Y-65756432D01*
X173911720Y-65754923D01*
X173863760Y-65762513D01*
X173830953Y-65788808D01*
X173810895Y-65839095D01*
X173801178Y-65918664D01*
X173799231Y-66002182D01*
X173603894Y-66002182D01*
X173604574Y-65908249D01*
X173607629Y-65837906D01*
G37*
D12*
X173607629Y-65837906D02*
X173614322Y-65789163D01*
X173625960Y-65753288D01*
X173643853Y-65721548D01*
X173647808Y-65715648D01*
X173714267Y-65636104D01*
X173786685Y-65589929D01*
X173874849Y-65571599D01*
X173904787Y-65570703D01*
X174016886Y-65587256D01*
X174108464Y-65635409D01*
X174176049Y-65712905D01*
X174200057Y-65762727D01*
X174218738Y-65837533D01*
X174228301Y-65932052D01*
X174229208Y-66035210D01*
X174221921Y-66135935D01*
X174206903Y-66223153D01*
X174184615Y-66285791D01*
X174177765Y-66296579D01*
X174096632Y-66377105D01*
X174000266Y-66425336D01*
X173895701Y-66439450D01*
X173789968Y-66417629D01*
X173760543Y-66404547D01*
X173703241Y-66364231D01*
X173652950Y-66310775D01*
X173648197Y-66303995D01*
X173628878Y-66271321D01*
X173616108Y-66236394D01*
X173608564Y-66190414D01*
X173604924Y-66124584D01*
X173603865Y-66030105D01*
X173603846Y-66008923D01*
X173603894Y-66002182D01*
X173799231Y-66002182D01*
X173800368Y-66091349D01*
X173804841Y-66150520D01*
X173814246Y-66188741D01*
X173830176Y-66215053D01*
X173838308Y-66223846D01*
X173885058Y-66257261D01*
X173930447Y-66255737D01*
X173976340Y-66226752D01*
X174003712Y-66195809D01*
X174019923Y-66150643D01*
X174029026Y-66079420D01*
X174029651Y-66071114D01*
X174031204Y-65942037D01*
X174014965Y-65846172D01*
X173981152Y-65784107D01*
X173929984Y-65756432D01*
X173911720Y-65754923D01*
X173863760Y-65762513D01*
X173830953Y-65788808D01*
X173810895Y-65839095D01*
X173801178Y-65918664D01*
X173799231Y-66002182D01*
X173603894Y-66002182D01*
X173604574Y-65908249D01*
X173607629Y-65837906D01*
G36*
X175134778Y-65741055D02*
G01*
X175180421Y-65675215D01*
X175262802Y-65608681D01*
X175353546Y-65575676D01*
X175446185Y-65573573D01*
X175534254Y-65599745D01*
X175611286Y-65651567D01*
X175670816Y-65726412D01*
X175706378Y-65821654D01*
X175713571Y-65891756D01*
X175712754Y-65921009D01*
X175705914Y-65943407D01*
X175687112Y-65963474D01*
X175650408Y-65985733D01*
X175589862Y-66014709D01*
X175499534Y-66054927D01*
X175499077Y-66055129D01*
X175415933Y-66093210D01*
X175347753Y-66127025D01*
X175301505Y-66152933D01*
X175284158Y-66167295D01*
X175284154Y-66167411D01*
X175299443Y-66198685D01*
X175335196Y-66233157D01*
X175376242Y-66257990D01*
X175397037Y-66262923D01*
X175453770Y-66245862D01*
X175502627Y-66203133D01*
X175526465Y-66156155D01*
X175549397Y-66121522D01*
X175594318Y-66082081D01*
X175647123Y-66048009D01*
X175693710Y-66029480D01*
X175703452Y-66028462D01*
X175714418Y-66045215D01*
X175715079Y-66088039D01*
X175707020Y-66145781D01*
X175691827Y-66207289D01*
X175671086Y-66261409D01*
X175670038Y-66263510D01*
X175607621Y-66350660D01*
X175526726Y-66409939D01*
X175434856Y-66439034D01*
X175339513Y-66435634D01*
X175248198Y-66397428D01*
X175244138Y-66394741D01*
X175172306Y-66329642D01*
X175125073Y-66244705D01*
X175098934Y-66133021D01*
X175095426Y-66101643D01*
X175089213Y-65953536D01*
X175096661Y-65884468D01*
X175284154Y-65884468D01*
X175286590Y-65927552D01*
X175299914Y-65940126D01*
X175333132Y-65930719D01*
X175385494Y-65908483D01*
X175444024Y-65880610D01*
X175445479Y-65879872D01*
X175495089Y-65853777D01*
X175515000Y-65836363D01*
X175510090Y-65818107D01*
X175489416Y-65794120D01*
X175436819Y-65759406D01*
X175380177Y-65756856D01*
X175329369Y-65782119D01*
X175294276Y-65830847D01*
X175284154Y-65884468D01*
X175096661Y-65884468D01*
X175101992Y-65835036D01*
X175134778Y-65741055D01*
G37*
X175134778Y-65741055D02*
X175180421Y-65675215D01*
X175262802Y-65608681D01*
X175353546Y-65575676D01*
X175446185Y-65573573D01*
X175534254Y-65599745D01*
X175611286Y-65651567D01*
X175670816Y-65726412D01*
X175706378Y-65821654D01*
X175713571Y-65891756D01*
X175712754Y-65921009D01*
X175705914Y-65943407D01*
X175687112Y-65963474D01*
X175650408Y-65985733D01*
X175589862Y-66014709D01*
X175499534Y-66054927D01*
X175499077Y-66055129D01*
X175415933Y-66093210D01*
X175347753Y-66127025D01*
X175301505Y-66152933D01*
X175284158Y-66167295D01*
X175284154Y-66167411D01*
X175299443Y-66198685D01*
X175335196Y-66233157D01*
X175376242Y-66257990D01*
X175397037Y-66262923D01*
X175453770Y-66245862D01*
X175502627Y-66203133D01*
X175526465Y-66156155D01*
X175549397Y-66121522D01*
X175594318Y-66082081D01*
X175647123Y-66048009D01*
X175693710Y-66029480D01*
X175703452Y-66028462D01*
X175714418Y-66045215D01*
X175715079Y-66088039D01*
X175707020Y-66145781D01*
X175691827Y-66207289D01*
X175671086Y-66261409D01*
X175670038Y-66263510D01*
X175607621Y-66350660D01*
X175526726Y-66409939D01*
X175434856Y-66439034D01*
X175339513Y-66435634D01*
X175248198Y-66397428D01*
X175244138Y-66394741D01*
X175172306Y-66329642D01*
X175125073Y-66244705D01*
X175098934Y-66133021D01*
X175095426Y-66101643D01*
X175089213Y-65953536D01*
X175096661Y-65884468D01*
X175284154Y-65884468D01*
X175286590Y-65927552D01*
X175299914Y-65940126D01*
X175333132Y-65930719D01*
X175385494Y-65908483D01*
X175444024Y-65880610D01*
X175445479Y-65879872D01*
X175495089Y-65853777D01*
X175515000Y-65836363D01*
X175510090Y-65818107D01*
X175489416Y-65794120D01*
X175436819Y-65759406D01*
X175380177Y-65756856D01*
X175329369Y-65782119D01*
X175294276Y-65830847D01*
X175284154Y-65884468D01*
X175096661Y-65884468D01*
X175101992Y-65835036D01*
X175134778Y-65741055D01*
G36*
X179056362Y-65813577D02*
G01*
X179086528Y-65744269D01*
X179133629Y-65690211D01*
X179170312Y-65662505D01*
X179236990Y-65632572D01*
X179314272Y-65618678D01*
X179386110Y-65622397D01*
X179426308Y-65637400D01*
X179442082Y-65641670D01*
X179452550Y-65625750D01*
X179459856Y-65583089D01*
X179465385Y-65518106D01*
X179471437Y-65445732D01*
X179479844Y-65402187D01*
X179495141Y-65377287D01*
X179521864Y-65360845D01*
X179538654Y-65353564D01*
X179602154Y-65326963D01*
X179602081Y-65780289D01*
X179601833Y-65926320D01*
X179600872Y-66038655D01*
X179598794Y-66122678D01*
X179595193Y-66183769D01*
X179589665Y-66227309D01*
X179581804Y-66258679D01*
X179571207Y-66283262D01*
X179563182Y-66297294D01*
X179496728Y-66373388D01*
X179412470Y-66421084D01*
X179319249Y-66438199D01*
X179225900Y-66422546D01*
X179170312Y-66394418D01*
X179111957Y-66345760D01*
X179072186Y-66286333D01*
X179048190Y-66208507D01*
X179037161Y-66104652D01*
X179035599Y-66028462D01*
X179035809Y-66022986D01*
X179172308Y-66022986D01*
X179173141Y-66110355D01*
X179176961Y-66168192D01*
X179185746Y-66206029D01*
X179201474Y-66233398D01*
X179220266Y-66254042D01*
X179283375Y-66293890D01*
X179351137Y-66297295D01*
X179415179Y-66264025D01*
X179420164Y-66259517D01*
X179441439Y-66236067D01*
X179454779Y-66208166D01*
X179462001Y-66166641D01*
X179464923Y-66102316D01*
X179465385Y-66031200D01*
X179464383Y-65941858D01*
X179460238Y-65882258D01*
X179451236Y-65843089D01*
X179435667Y-65815040D01*
X179422902Y-65800144D01*
X179363600Y-65762575D01*
X179295301Y-65758057D01*
X179230110Y-65786753D01*
X179217528Y-65797406D01*
X179196111Y-65821063D01*
X179182744Y-65849251D01*
X179175566Y-65891245D01*
X179172719Y-65956319D01*
X179172308Y-66022986D01*
X179035809Y-66022986D01*
X179040322Y-65905765D01*
X179056362Y-65813577D01*
G37*
X179056362Y-65813577D02*
X179086528Y-65744269D01*
X179133629Y-65690211D01*
X179170312Y-65662505D01*
X179236990Y-65632572D01*
X179314272Y-65618678D01*
X179386110Y-65622397D01*
X179426308Y-65637400D01*
X179442082Y-65641670D01*
X179452550Y-65625750D01*
X179459856Y-65583089D01*
X179465385Y-65518106D01*
X179471437Y-65445732D01*
X179479844Y-65402187D01*
X179495141Y-65377287D01*
X179521864Y-65360845D01*
X179538654Y-65353564D01*
X179602154Y-65326963D01*
X179602081Y-65780289D01*
X179601833Y-65926320D01*
X179600872Y-66038655D01*
X179598794Y-66122678D01*
X179595193Y-66183769D01*
X179589665Y-66227309D01*
X179581804Y-66258679D01*
X179571207Y-66283262D01*
X179563182Y-66297294D01*
X179496728Y-66373388D01*
X179412470Y-66421084D01*
X179319249Y-66438199D01*
X179225900Y-66422546D01*
X179170312Y-66394418D01*
X179111957Y-66345760D01*
X179072186Y-66286333D01*
X179048190Y-66208507D01*
X179037161Y-66104652D01*
X179035599Y-66028462D01*
X179035809Y-66022986D01*
X179172308Y-66022986D01*
X179173141Y-66110355D01*
X179176961Y-66168192D01*
X179185746Y-66206029D01*
X179201474Y-66233398D01*
X179220266Y-66254042D01*
X179283375Y-66293890D01*
X179351137Y-66297295D01*
X179415179Y-66264025D01*
X179420164Y-66259517D01*
X179441439Y-66236067D01*
X179454779Y-66208166D01*
X179462001Y-66166641D01*
X179464923Y-66102316D01*
X179465385Y-66031200D01*
X179464383Y-65941858D01*
X179460238Y-65882258D01*
X179451236Y-65843089D01*
X179435667Y-65815040D01*
X179422902Y-65800144D01*
X179363600Y-65762575D01*
X179295301Y-65758057D01*
X179230110Y-65786753D01*
X179217528Y-65797406D01*
X179196111Y-65821063D01*
X179182744Y-65849251D01*
X179175566Y-65891245D01*
X179172719Y-65956319D01*
X179172308Y-66022986D01*
X179035809Y-66022986D01*
X179040322Y-65905765D01*
X179056362Y-65813577D01*
G36*
X181570807Y-65636782D02*
G01*
X181594161Y-65646988D01*
X181649902Y-65691134D01*
X181697569Y-65754967D01*
X181727048Y-65823087D01*
X181731846Y-65856670D01*
X181715760Y-65903556D01*
X181680475Y-65928365D01*
X181642644Y-65943387D01*
X181625321Y-65946155D01*
X181616886Y-65926066D01*
X181600230Y-65882351D01*
X181592923Y-65862598D01*
X181551948Y-65794271D01*
X181492622Y-65760191D01*
X181416552Y-65761239D01*
X181410918Y-65762581D01*
X181370305Y-65781836D01*
X181340448Y-65819375D01*
X181320055Y-65879809D01*
X181307836Y-65967751D01*
X181302500Y-66087813D01*
X181302000Y-66151698D01*
X181301752Y-66252403D01*
X181300126Y-66321054D01*
X181295801Y-66364673D01*
X181287454Y-66390282D01*
X181273765Y-66404903D01*
X181253411Y-66415558D01*
X181252234Y-66416095D01*
X181213038Y-66432667D01*
X181193619Y-66438769D01*
X181190635Y-66420319D01*
X181188081Y-66369323D01*
X181186140Y-66292308D01*
X181184997Y-66195805D01*
X181184769Y-66125184D01*
X181185932Y-65988525D01*
X181190479Y-65884851D01*
X181199999Y-65808108D01*
X181216081Y-65752246D01*
X181240313Y-65711212D01*
X181274286Y-65678954D01*
X181307833Y-65656440D01*
X181388499Y-65626476D01*
X181482381Y-65619718D01*
X181570807Y-65636782D01*
G37*
X181570807Y-65636782D02*
X181594161Y-65646988D01*
X181649902Y-65691134D01*
X181697569Y-65754967D01*
X181727048Y-65823087D01*
X181731846Y-65856670D01*
X181715760Y-65903556D01*
X181680475Y-65928365D01*
X181642644Y-65943387D01*
X181625321Y-65946155D01*
X181616886Y-65926066D01*
X181600230Y-65882351D01*
X181592923Y-65862598D01*
X181551948Y-65794271D01*
X181492622Y-65760191D01*
X181416552Y-65761239D01*
X181410918Y-65762581D01*
X181370305Y-65781836D01*
X181340448Y-65819375D01*
X181320055Y-65879809D01*
X181307836Y-65967751D01*
X181302500Y-66087813D01*
X181302000Y-66151698D01*
X181301752Y-66252403D01*
X181300126Y-66321054D01*
X181295801Y-66364673D01*
X181287454Y-66390282D01*
X181273765Y-66404903D01*
X181253411Y-66415558D01*
X181252234Y-66416095D01*
X181213038Y-66432667D01*
X181193619Y-66438769D01*
X181190635Y-66420319D01*
X181188081Y-66369323D01*
X181186140Y-66292308D01*
X181184997Y-66195805D01*
X181184769Y-66125184D01*
X181185932Y-65988525D01*
X181190479Y-65884851D01*
X181199999Y-65808108D01*
X181216081Y-65752246D01*
X181240313Y-65711212D01*
X181274286Y-65678954D01*
X181307833Y-65656440D01*
X181388499Y-65626476D01*
X181482381Y-65619718D01*
X181570807Y-65636782D01*
G36*
X181861032Y-65820710D02*
G01*
X181879460Y-65755167D01*
X181909360Y-65706912D01*
X181953080Y-65668767D01*
X181972141Y-65656440D01*
X182058726Y-65624336D01*
X182153522Y-65622316D01*
X182245224Y-65647838D01*
X182322528Y-65698361D01*
X182359814Y-65743590D01*
X182389353Y-65825663D01*
X182391699Y-65890607D01*
X182386385Y-65977445D01*
X182186115Y-66065103D01*
X182088739Y-66109887D01*
X182025113Y-66145913D01*
X181992029Y-66177117D01*
X181986280Y-66207436D01*
X182004658Y-66240805D01*
X182024923Y-66262923D01*
X182083889Y-66298393D01*
X182148024Y-66300879D01*
X182206926Y-66273235D01*
X182250197Y-66218320D01*
X182257936Y-66198928D01*
X182295006Y-66138364D01*
X182337654Y-66112552D01*
X182396154Y-66090471D01*
X182396154Y-66174184D01*
X182390982Y-66231150D01*
X182370723Y-66279189D01*
X182328262Y-66334346D01*
X182321951Y-66341514D01*
X182274720Y-66390585D01*
X182234121Y-66416920D01*
X182183328Y-66429035D01*
X182141220Y-66433003D01*
X182065902Y-66433991D01*
X182012286Y-66421466D01*
X181978838Y-66402869D01*
X181926268Y-66361975D01*
X181889879Y-66317748D01*
X181866850Y-66262126D01*
X181854359Y-66187047D01*
X181849587Y-66084449D01*
X181849206Y-66032376D01*
X181850501Y-65969948D01*
X181968471Y-65969948D01*
X181969839Y-66003438D01*
X181973249Y-66008923D01*
X181995753Y-66001472D01*
X182044182Y-65981753D01*
X182108908Y-65953718D01*
X182122443Y-65947692D01*
X182204244Y-65906096D01*
X182249312Y-65869538D01*
X182259217Y-65835296D01*
X182235526Y-65800648D01*
X182215960Y-65785339D01*
X182145360Y-65754721D01*
X182079280Y-65759780D01*
X182023959Y-65797151D01*
X181985636Y-65863473D01*
X181973349Y-65916116D01*
X181968471Y-65969948D01*
X181850501Y-65969948D01*
X181851730Y-65910720D01*
X181861032Y-65820710D01*
G37*
X181861032Y-65820710D02*
X181879460Y-65755167D01*
X181909360Y-65706912D01*
X181953080Y-65668767D01*
X181972141Y-65656440D01*
X182058726Y-65624336D01*
X182153522Y-65622316D01*
X182245224Y-65647838D01*
X182322528Y-65698361D01*
X182359814Y-65743590D01*
X182389353Y-65825663D01*
X182391699Y-65890607D01*
X182386385Y-65977445D01*
X182186115Y-66065103D01*
X182088739Y-66109887D01*
X182025113Y-66145913D01*
X181992029Y-66177117D01*
X181986280Y-66207436D01*
X182004658Y-66240805D01*
X182024923Y-66262923D01*
X182083889Y-66298393D01*
X182148024Y-66300879D01*
X182206926Y-66273235D01*
X182250197Y-66218320D01*
X182257936Y-66198928D01*
X182295006Y-66138364D01*
X182337654Y-66112552D01*
X182396154Y-66090471D01*
X182396154Y-66174184D01*
X182390982Y-66231150D01*
X182370723Y-66279189D01*
X182328262Y-66334346D01*
X182321951Y-66341514D01*
X182274720Y-66390585D01*
X182234121Y-66416920D01*
X182183328Y-66429035D01*
X182141220Y-66433003D01*
X182065902Y-66433991D01*
X182012286Y-66421466D01*
X181978838Y-66402869D01*
X181926268Y-66361975D01*
X181889879Y-66317748D01*
X181866850Y-66262126D01*
X181854359Y-66187047D01*
X181849587Y-66084449D01*
X181849206Y-66032376D01*
X181850501Y-65969948D01*
X181968471Y-65969948D01*
X181969839Y-66003438D01*
X181973249Y-66008923D01*
X181995753Y-66001472D01*
X182044182Y-65981753D01*
X182108908Y-65953718D01*
X182122443Y-65947692D01*
X182204244Y-65906096D01*
X182249312Y-65869538D01*
X182259217Y-65835296D01*
X182235526Y-65800648D01*
X182215960Y-65785339D01*
X182145360Y-65754721D01*
X182079280Y-65759780D01*
X182023959Y-65797151D01*
X181985636Y-65863473D01*
X181973349Y-65916116D01*
X181968471Y-65969948D01*
X181850501Y-65969948D01*
X181851730Y-65910720D01*
X181861032Y-65820710D01*
G36*
X176271664Y-65595089D02*
G01*
X176334367Y-65631358D01*
X176377961Y-65667358D01*
X176409845Y-65705075D01*
X176431810Y-65751199D01*
X176445649Y-65812421D01*
X176453153Y-65895431D01*
X176456117Y-66006919D01*
X176456461Y-66087062D01*
X176456461Y-66382065D01*
X176290385Y-66456515D01*
X176280615Y-66133402D01*
X176276579Y-66012729D01*
X176272344Y-65925141D01*
X176267097Y-65864650D01*
X176260025Y-65825268D01*
X176250311Y-65801007D01*
X176237144Y-65785880D01*
X176232919Y-65782606D01*
X176168909Y-65757034D01*
X176104208Y-65767153D01*
X176065692Y-65794000D01*
X176050025Y-65813024D01*
X176039180Y-65837988D01*
X176032288Y-65875834D01*
X176028479Y-65933502D01*
X176026883Y-66017935D01*
X176026615Y-66105928D01*
X176026563Y-66216323D01*
X176024672Y-66294463D01*
X176018345Y-66347165D01*
X176004983Y-66381242D01*
X175981985Y-66403511D01*
X175946754Y-66420787D01*
X175899697Y-66438738D01*
X175848303Y-66458278D01*
X175854421Y-66111485D01*
X175856884Y-65986468D01*
X175859767Y-65894082D01*
X175863898Y-65827881D01*
X175870107Y-65781420D01*
X175879226Y-65748256D01*
X175892083Y-65721944D01*
X175907584Y-65698729D01*
X175982371Y-65624569D01*
X176073628Y-65581684D01*
X176172883Y-65571412D01*
X176271664Y-65595089D01*
G37*
X176271664Y-65595089D02*
X176334367Y-65631358D01*
X176377961Y-65667358D01*
X176409845Y-65705075D01*
X176431810Y-65751199D01*
X176445649Y-65812421D01*
X176453153Y-65895431D01*
X176456117Y-66006919D01*
X176456461Y-66087062D01*
X176456461Y-66382065D01*
X176290385Y-66456515D01*
X176280615Y-66133402D01*
X176276579Y-66012729D01*
X176272344Y-65925141D01*
X176267097Y-65864650D01*
X176260025Y-65825268D01*
X176250311Y-65801007D01*
X176237144Y-65785880D01*
X176232919Y-65782606D01*
X176168909Y-65757034D01*
X176104208Y-65767153D01*
X176065692Y-65794000D01*
X176050025Y-65813024D01*
X176039180Y-65837988D01*
X176032288Y-65875834D01*
X176028479Y-65933502D01*
X176026883Y-66017935D01*
X176026615Y-66105928D01*
X176026563Y-66216323D01*
X176024672Y-66294463D01*
X176018345Y-66347165D01*
X176004983Y-66381242D01*
X175981985Y-66403511D01*
X175946754Y-66420787D01*
X175899697Y-66438738D01*
X175848303Y-66458278D01*
X175854421Y-66111485D01*
X175856884Y-65986468D01*
X175859767Y-65894082D01*
X175863898Y-65827881D01*
X175870107Y-65781420D01*
X175879226Y-65748256D01*
X175892083Y-65721944D01*
X175907584Y-65698729D01*
X175982371Y-65624569D01*
X176073628Y-65581684D01*
X176172883Y-65571412D01*
X176271664Y-65595089D01*
G36*
X178053501Y-65626303D02*
G01*
X178130060Y-65654733D01*
X178130936Y-65655279D01*
X178178285Y-65690127D01*
X178213241Y-65730852D01*
X178237825Y-65783925D01*
X178254062Y-65855814D01*
X178263975Y-65952992D01*
X178269586Y-66081928D01*
X178270077Y-66100298D01*
X178277141Y-66377287D01*
X178217695Y-66408028D01*
X178174681Y-66428802D01*
X178148710Y-66438646D01*
X178147509Y-66438769D01*
X178143014Y-66420606D01*
X178139444Y-66371612D01*
X178137248Y-66300031D01*
X178136769Y-66242068D01*
X178136758Y-66148170D01*
X178132466Y-66089203D01*
X178117503Y-66061079D01*
X178085482Y-66059706D01*
X178030014Y-66080998D01*
X177946269Y-66120136D01*
X177884689Y-66152643D01*
X177853017Y-66180845D01*
X177843706Y-66211582D01*
X177843692Y-66213104D01*
X177859057Y-66266054D01*
X177904547Y-66294660D01*
X177974166Y-66298803D01*
X178024313Y-66298084D01*
X178050754Y-66312527D01*
X178067243Y-66347218D01*
X178076733Y-66391416D01*
X178063057Y-66416493D01*
X178057907Y-66420082D01*
X178009425Y-66434496D01*
X177941531Y-66436537D01*
X177871612Y-66426983D01*
X177822068Y-66409522D01*
X177753570Y-66351364D01*
X177714634Y-66270408D01*
X177706923Y-66207160D01*
X177712807Y-66150111D01*
X177734101Y-66103542D01*
X177776265Y-66062181D01*
X177844759Y-66020755D01*
X177945044Y-65973993D01*
X177951154Y-65971350D01*
X178041490Y-65929617D01*
X178097235Y-65895391D01*
X178121129Y-65864635D01*
X178115913Y-65833311D01*
X178084328Y-65797383D01*
X178074883Y-65789116D01*
X178011617Y-65757058D01*
X177946064Y-65758407D01*
X177888972Y-65789838D01*
X177851093Y-65848024D01*
X177847574Y-65859446D01*
X177813300Y-65914837D01*
X177769809Y-65941518D01*
X177706923Y-65967960D01*
X177706923Y-65899548D01*
X177726052Y-65800110D01*
X177782831Y-65708902D01*
X177812378Y-65678389D01*
X177879542Y-65639228D01*
X177964956Y-65621500D01*
X178053501Y-65626303D01*
G37*
X178053501Y-65626303D02*
X178130060Y-65654733D01*
X178130936Y-65655279D01*
X178178285Y-65690127D01*
X178213241Y-65730852D01*
X178237825Y-65783925D01*
X178254062Y-65855814D01*
X178263975Y-65952992D01*
X178269586Y-66081928D01*
X178270077Y-66100298D01*
X178277141Y-66377287D01*
X178217695Y-66408028D01*
X178174681Y-66428802D01*
X178148710Y-66438646D01*
X178147509Y-66438769D01*
X178143014Y-66420606D01*
X178139444Y-66371612D01*
X178137248Y-66300031D01*
X178136769Y-66242068D01*
X178136758Y-66148170D01*
X178132466Y-66089203D01*
X178117503Y-66061079D01*
X178085482Y-66059706D01*
X178030014Y-66080998D01*
X177946269Y-66120136D01*
X177884689Y-66152643D01*
X177853017Y-66180845D01*
X177843706Y-66211582D01*
X177843692Y-66213104D01*
X177859057Y-66266054D01*
X177904547Y-66294660D01*
X177974166Y-66298803D01*
X178024313Y-66298084D01*
X178050754Y-66312527D01*
X178067243Y-66347218D01*
X178076733Y-66391416D01*
X178063057Y-66416493D01*
X178057907Y-66420082D01*
X178009425Y-66434496D01*
X177941531Y-66436537D01*
X177871612Y-66426983D01*
X177822068Y-66409522D01*
X177753570Y-66351364D01*
X177714634Y-66270408D01*
X177706923Y-66207160D01*
X177712807Y-66150111D01*
X177734101Y-66103542D01*
X177776265Y-66062181D01*
X177844759Y-66020755D01*
X177945044Y-65973993D01*
X177951154Y-65971350D01*
X178041490Y-65929617D01*
X178097235Y-65895391D01*
X178121129Y-65864635D01*
X178115913Y-65833311D01*
X178084328Y-65797383D01*
X178074883Y-65789116D01*
X178011617Y-65757058D01*
X177946064Y-65758407D01*
X177888972Y-65789838D01*
X177851093Y-65848024D01*
X177847574Y-65859446D01*
X177813300Y-65914837D01*
X177769809Y-65941518D01*
X177706923Y-65967960D01*
X177706923Y-65899548D01*
X177726052Y-65800110D01*
X177782831Y-65708902D01*
X177812378Y-65678389D01*
X177879542Y-65639228D01*
X177964956Y-65621500D01*
X178053501Y-65626303D01*
G36*
X178139878Y-59287776D02*
G01*
X178245612Y-59288355D01*
X178322132Y-59289922D01*
X178374372Y-59292972D01*
X178407263Y-59297996D01*
X178425737Y-59305489D01*
X178434727Y-59315944D01*
X178439163Y-59329853D01*
X178439594Y-59331654D01*
X178446333Y-59364145D01*
X178458808Y-59428252D01*
X178475719Y-59517151D01*
X178495771Y-59624019D01*
X178517664Y-59742033D01*
X178518429Y-59746178D01*
X178540359Y-59861831D01*
X178560877Y-59964014D01*
X178578659Y-60046598D01*
X178592381Y-60103456D01*
X178600718Y-60128458D01*
X178601116Y-60128901D01*
X178625677Y-60141110D01*
X178676315Y-60161456D01*
X178742095Y-60185545D01*
X178742461Y-60185674D01*
X178825317Y-60216818D01*
X178923000Y-60256491D01*
X179015077Y-60296381D01*
X179019434Y-60298353D01*
X179169407Y-60366420D01*
X179501498Y-60139639D01*
X179603374Y-60070504D01*
X179695657Y-60008697D01*
X179773003Y-59957733D01*
X179830064Y-59921127D01*
X179861495Y-59902394D01*
X179864479Y-59901004D01*
X179887321Y-59907190D01*
X179929982Y-59937035D01*
X179994128Y-59991947D01*
X180081421Y-60073334D01*
X180170535Y-60159922D01*
X180256441Y-60245247D01*
X180333327Y-60323108D01*
X180396564Y-60388697D01*
X180441523Y-60437205D01*
X180463576Y-60463825D01*
X180464396Y-60465195D01*
X180466834Y-60483463D01*
X180457650Y-60513295D01*
X180434574Y-60558721D01*
X180395337Y-60623770D01*
X180337670Y-60712470D01*
X180260795Y-60826657D01*
X180192570Y-60927162D01*
X180131582Y-61017303D01*
X180081356Y-61091849D01*
X180045416Y-61145565D01*
X180027287Y-61173218D01*
X180026146Y-61175095D01*
X180028359Y-61201590D01*
X180045138Y-61253086D01*
X180073142Y-61319851D01*
X180083122Y-61341172D01*
X180126672Y-61436159D01*
X180173134Y-61543937D01*
X180210877Y-61637192D01*
X180238073Y-61706406D01*
X180259675Y-61759006D01*
X180272158Y-61786497D01*
X180273709Y-61788616D01*
X180296668Y-61792124D01*
X180350786Y-61801738D01*
X180428868Y-61816089D01*
X180523719Y-61833807D01*
X180628143Y-61853525D01*
X180734944Y-61873874D01*
X180836926Y-61893486D01*
X180926894Y-61910991D01*
X180997653Y-61925022D01*
X181042006Y-61934209D01*
X181052885Y-61936807D01*
X181064122Y-61943218D01*
X181072605Y-61957697D01*
X181078714Y-61985133D01*
X181082832Y-62030411D01*
X181085341Y-62098420D01*
X181086621Y-62194047D01*
X181087054Y-62322180D01*
X181087077Y-62374701D01*
X181087077Y-62801845D01*
X180984500Y-62822091D01*
X180927431Y-62833070D01*
X180842269Y-62849095D01*
X180739372Y-62868233D01*
X180629096Y-62888551D01*
X180598615Y-62894132D01*
X180496855Y-62913917D01*
X180408205Y-62933373D01*
X180340108Y-62950697D01*
X180300004Y-62964088D01*
X180293323Y-62968079D01*
X180276919Y-62996342D01*
X180253399Y-63051109D01*
X180227316Y-63121588D01*
X180222142Y-63136769D01*
X180187956Y-63230896D01*
X180145523Y-63337101D01*
X180103997Y-63432473D01*
X180103792Y-63432916D01*
X180034640Y-63582525D01*
X180489512Y-64251617D01*
X180197500Y-64544116D01*
X180109180Y-64631170D01*
X180028625Y-64707909D01*
X179960360Y-64770237D01*
X179908908Y-64814056D01*
X179878794Y-64835270D01*
X179874474Y-64836616D01*
X179849111Y-64826016D01*
X179797358Y-64796547D01*
X179724868Y-64751705D01*
X179637294Y-64694984D01*
X179542612Y-64631462D01*
X179446516Y-64566668D01*
X179360837Y-64510287D01*
X179291016Y-64465788D01*
X179242494Y-64436639D01*
X179220782Y-64426308D01*
X179194293Y-64435050D01*
X179144062Y-64458087D01*
X179080451Y-64490631D01*
X179073708Y-64494249D01*
X178988046Y-64537210D01*
X178929306Y-64558279D01*
X178892772Y-64558503D01*
X178873731Y-64538928D01*
X178873620Y-64538654D01*
X178864102Y-64515472D01*
X178841403Y-64460441D01*
X178807282Y-64377822D01*
X178763500Y-64271872D01*
X178711816Y-64146852D01*
X178653992Y-64007020D01*
X178597991Y-63871637D01*
X178536447Y-63722234D01*
X178479939Y-63583832D01*
X178430161Y-63460673D01*
X178388806Y-63357002D01*
X178357568Y-63277059D01*
X178338141Y-63225088D01*
X178332154Y-63205692D01*
X178347168Y-63183443D01*
X178386439Y-63147982D01*
X178438807Y-63108887D01*
X178587941Y-62985245D01*
X178704511Y-62843522D01*
X178787118Y-62686704D01*
X178834366Y-62517775D01*
X178844857Y-62339722D01*
X178837231Y-62257539D01*
X178795682Y-62087031D01*
X178724123Y-61936459D01*
X178626995Y-61807309D01*
X178508734Y-61701064D01*
X178373780Y-61619210D01*
X178226571Y-61563232D01*
X178071544Y-61534615D01*
X177913139Y-61534844D01*
X177755794Y-61565405D01*
X177603946Y-61627782D01*
X177462035Y-61723460D01*
X177402803Y-61777572D01*
X177289203Y-61916520D01*
X177210106Y-62068361D01*
X177164986Y-62228667D01*
X177153316Y-62393012D01*
X177174569Y-62556971D01*
X177228220Y-62716118D01*
X177313740Y-62866025D01*
X177430605Y-63002267D01*
X177561193Y-63108887D01*
X177615588Y-63149642D01*
X177654014Y-63184718D01*
X177667846Y-63205726D01*
X177660603Y-63228635D01*
X177640005Y-63283365D01*
X177607746Y-63365672D01*
X177565521Y-63471315D01*
X177515023Y-63596050D01*
X177457948Y-63735636D01*
X177401854Y-63871670D01*
X177339967Y-64021201D01*
X177282644Y-64159767D01*
X177231644Y-64283107D01*
X177188727Y-64386964D01*
X177155653Y-64467080D01*
X177134181Y-64519195D01*
X177126225Y-64538654D01*
X177107429Y-64558423D01*
X177071074Y-64558365D01*
X177012479Y-64537441D01*
X176926968Y-64494613D01*
X176926292Y-64494249D01*
X176861907Y-64461012D01*
X176809861Y-64436802D01*
X176780512Y-64426404D01*
X176779217Y-64426308D01*
X176757124Y-64436855D01*
X176708348Y-64466184D01*
X176638331Y-64510827D01*
X176552514Y-64567314D01*
X176457388Y-64631462D01*
X176360540Y-64696411D01*
X176273253Y-64752896D01*
X176201181Y-64797421D01*
X176149977Y-64826490D01*
X176125526Y-64836616D01*
X176103010Y-64823307D01*
X176057742Y-64786112D01*
X175994244Y-64729128D01*
X175917039Y-64656449D01*
X175830651Y-64572171D01*
X175802399Y-64544016D01*
X175510287Y-64251416D01*
X175732631Y-63925104D01*
X175800202Y-63824897D01*
X175859507Y-63734963D01*
X175907217Y-63660510D01*
X175940007Y-63606751D01*
X175954548Y-63578894D01*
X175954974Y-63576912D01*
X175947308Y-63550655D01*
X175926689Y-63497837D01*
X175896685Y-63427310D01*
X175875625Y-63380093D01*
X175836248Y-63289694D01*
X175799165Y-63198366D01*
X175770415Y-63121200D01*
X175762605Y-63097692D01*
X175740417Y-63034916D01*
X175718727Y-62986411D01*
X175706813Y-62968079D01*
X175680523Y-62956859D01*
X175623142Y-62940954D01*
X175542118Y-62922167D01*
X175444895Y-62902299D01*
X175401385Y-62894132D01*
X175290896Y-62873829D01*
X175184916Y-62854170D01*
X175093801Y-62837088D01*
X175027908Y-62824518D01*
X175015500Y-62822091D01*
X174912923Y-62801845D01*
X174912923Y-62374701D01*
X174913153Y-62234246D01*
X174914099Y-62127979D01*
X174916141Y-62051013D01*
X174919662Y-61998460D01*
X174925043Y-61965433D01*
X174932666Y-61947045D01*
X174942912Y-61938408D01*
X174947115Y-61936807D01*
X174972470Y-61931127D01*
X175028484Y-61919795D01*
X175107964Y-61904179D01*
X175203712Y-61885647D01*
X175308533Y-61865569D01*
X175415232Y-61845312D01*
X175516613Y-61826246D01*
X175605479Y-61809739D01*
X175674637Y-61797159D01*
X175716889Y-61789875D01*
X175726290Y-61788616D01*
X175734807Y-61771763D01*
X175753660Y-61726870D01*
X175779324Y-61662430D01*
X175789123Y-61637192D01*
X175828648Y-61539686D01*
X175875192Y-61431959D01*
X175916877Y-61341172D01*
X175947550Y-61271753D01*
X175967956Y-61214710D01*
X175974768Y-61179777D01*
X175973682Y-61175095D01*
X175959285Y-61152991D01*
X175926412Y-61103831D01*
X175878590Y-61032848D01*
X175819348Y-60945278D01*
X175752215Y-60846357D01*
X175738941Y-60826830D01*
X175661046Y-60711140D01*
X175603787Y-60623044D01*
X175564881Y-60558486D01*
X175542044Y-60513411D01*
X175532994Y-60483763D01*
X175535448Y-60465485D01*
X175535511Y-60465369D01*
X175554827Y-60441361D01*
X175597551Y-60394947D01*
X175659051Y-60330937D01*
X175734698Y-60254145D01*
X175819861Y-60169382D01*
X175829465Y-60159922D01*
X175936790Y-60055989D01*
X176019615Y-59979675D01*
X176079605Y-59929571D01*
X176118423Y-59904270D01*
X176135520Y-59901004D01*
X176160473Y-59915250D01*
X176212255Y-59948156D01*
X176285520Y-59996208D01*
X176374920Y-60055890D01*
X176475111Y-60123688D01*
X176498501Y-60139639D01*
X176830593Y-60366420D01*
X176980565Y-60298353D01*
X177071770Y-60258685D01*
X177169669Y-60218791D01*
X177253831Y-60186983D01*
X177257538Y-60185674D01*
X177323369Y-60161576D01*
X177374116Y-60141200D01*
X177398842Y-60128936D01*
X177398884Y-60128901D01*
X177406729Y-60106734D01*
X177420066Y-60052217D01*
X177437570Y-59971480D01*
X177457917Y-59870650D01*
X177479782Y-59755856D01*
X177481571Y-59746178D01*
X177503504Y-59627904D01*
X177523640Y-59520542D01*
X177540680Y-59430917D01*
X177553328Y-59365851D01*
X177560284Y-59332168D01*
X177560406Y-59331654D01*
X177564639Y-59317325D01*
X177572871Y-59306507D01*
X177590033Y-59298706D01*
X177621058Y-59293429D01*
X177670878Y-59290182D01*
X177744424Y-59288472D01*
X177846629Y-59287807D01*
X177982425Y-59287693D01*
X178000000Y-59287692D01*
X178139878Y-59287776D01*
G37*
X178139878Y-59287776D02*
X178245612Y-59288355D01*
X178322132Y-59289922D01*
X178374372Y-59292972D01*
X178407263Y-59297996D01*
X178425737Y-59305489D01*
X178434727Y-59315944D01*
X178439163Y-59329853D01*
X178439594Y-59331654D01*
X178446333Y-59364145D01*
X178458808Y-59428252D01*
X178475719Y-59517151D01*
X178495771Y-59624019D01*
X178517664Y-59742033D01*
X178518429Y-59746178D01*
X178540359Y-59861831D01*
X178560877Y-59964014D01*
X178578659Y-60046598D01*
X178592381Y-60103456D01*
X178600718Y-60128458D01*
X178601116Y-60128901D01*
X178625677Y-60141110D01*
X178676315Y-60161456D01*
X178742095Y-60185545D01*
X178742461Y-60185674D01*
X178825317Y-60216818D01*
X178923000Y-60256491D01*
X179015077Y-60296381D01*
X179019434Y-60298353D01*
X179169407Y-60366420D01*
X179501498Y-60139639D01*
X179603374Y-60070504D01*
X179695657Y-60008697D01*
X179773003Y-59957733D01*
X179830064Y-59921127D01*
X179861495Y-59902394D01*
X179864479Y-59901004D01*
X179887321Y-59907190D01*
X179929982Y-59937035D01*
X179994128Y-59991947D01*
X180081421Y-60073334D01*
X180170535Y-60159922D01*
X180256441Y-60245247D01*
X180333327Y-60323108D01*
X180396564Y-60388697D01*
X180441523Y-60437205D01*
X180463576Y-60463825D01*
X180464396Y-60465195D01*
X180466834Y-60483463D01*
X180457650Y-60513295D01*
X180434574Y-60558721D01*
X180395337Y-60623770D01*
X180337670Y-60712470D01*
X180260795Y-60826657D01*
X180192570Y-60927162D01*
X180131582Y-61017303D01*
X180081356Y-61091849D01*
X180045416Y-61145565D01*
X180027287Y-61173218D01*
X180026146Y-61175095D01*
X180028359Y-61201590D01*
X180045138Y-61253086D01*
X180073142Y-61319851D01*
X180083122Y-61341172D01*
X180126672Y-61436159D01*
X180173134Y-61543937D01*
X180210877Y-61637192D01*
X180238073Y-61706406D01*
X180259675Y-61759006D01*
X180272158Y-61786497D01*
X180273709Y-61788616D01*
X180296668Y-61792124D01*
X180350786Y-61801738D01*
X180428868Y-61816089D01*
X180523719Y-61833807D01*
X180628143Y-61853525D01*
X180734944Y-61873874D01*
X180836926Y-61893486D01*
X180926894Y-61910991D01*
X180997653Y-61925022D01*
X181042006Y-61934209D01*
X181052885Y-61936807D01*
X181064122Y-61943218D01*
X181072605Y-61957697D01*
X181078714Y-61985133D01*
X181082832Y-62030411D01*
X181085341Y-62098420D01*
X181086621Y-62194047D01*
X181087054Y-62322180D01*
X181087077Y-62374701D01*
X181087077Y-62801845D01*
X180984500Y-62822091D01*
X180927431Y-62833070D01*
X180842269Y-62849095D01*
X180739372Y-62868233D01*
X180629096Y-62888551D01*
X180598615Y-62894132D01*
X180496855Y-62913917D01*
X180408205Y-62933373D01*
X180340108Y-62950697D01*
X180300004Y-62964088D01*
X180293323Y-62968079D01*
X180276919Y-62996342D01*
X180253399Y-63051109D01*
X180227316Y-63121588D01*
X180222142Y-63136769D01*
X180187956Y-63230896D01*
X180145523Y-63337101D01*
X180103997Y-63432473D01*
X180103792Y-63432916D01*
X180034640Y-63582525D01*
X180489512Y-64251617D01*
X180197500Y-64544116D01*
X180109180Y-64631170D01*
X180028625Y-64707909D01*
X179960360Y-64770237D01*
X179908908Y-64814056D01*
X179878794Y-64835270D01*
X179874474Y-64836616D01*
X179849111Y-64826016D01*
X179797358Y-64796547D01*
X179724868Y-64751705D01*
X179637294Y-64694984D01*
X179542612Y-64631462D01*
X179446516Y-64566668D01*
X179360837Y-64510287D01*
X179291016Y-64465788D01*
X179242494Y-64436639D01*
X179220782Y-64426308D01*
X179194293Y-64435050D01*
X179144062Y-64458087D01*
X179080451Y-64490631D01*
X179073708Y-64494249D01*
X178988046Y-64537210D01*
X178929306Y-64558279D01*
X178892772Y-64558503D01*
X178873731Y-64538928D01*
X178873620Y-64538654D01*
X178864102Y-64515472D01*
X178841403Y-64460441D01*
X178807282Y-64377822D01*
X178763500Y-64271872D01*
X178711816Y-64146852D01*
X178653992Y-64007020D01*
X178597991Y-63871637D01*
X178536447Y-63722234D01*
X178479939Y-63583832D01*
X178430161Y-63460673D01*
X178388806Y-63357002D01*
X178357568Y-63277059D01*
X178338141Y-63225088D01*
X178332154Y-63205692D01*
X178347168Y-63183443D01*
X178386439Y-63147982D01*
X178438807Y-63108887D01*
X178587941Y-62985245D01*
X178704511Y-62843522D01*
X178787118Y-62686704D01*
X178834366Y-62517775D01*
X178844857Y-62339722D01*
X178837231Y-62257539D01*
X178795682Y-62087031D01*
X178724123Y-61936459D01*
X178626995Y-61807309D01*
X178508734Y-61701064D01*
X178373780Y-61619210D01*
X178226571Y-61563232D01*
X178071544Y-61534615D01*
X177913139Y-61534844D01*
X177755794Y-61565405D01*
X177603946Y-61627782D01*
X177462035Y-61723460D01*
X177402803Y-61777572D01*
X177289203Y-61916520D01*
X177210106Y-62068361D01*
X177164986Y-62228667D01*
X177153316Y-62393012D01*
X177174569Y-62556971D01*
X177228220Y-62716118D01*
X177313740Y-62866025D01*
X177430605Y-63002267D01*
X177561193Y-63108887D01*
X177615588Y-63149642D01*
X177654014Y-63184718D01*
X177667846Y-63205726D01*
X177660603Y-63228635D01*
X177640005Y-63283365D01*
X177607746Y-63365672D01*
X177565521Y-63471315D01*
X177515023Y-63596050D01*
X177457948Y-63735636D01*
X177401854Y-63871670D01*
X177339967Y-64021201D01*
X177282644Y-64159767D01*
X177231644Y-64283107D01*
X177188727Y-64386964D01*
X177155653Y-64467080D01*
X177134181Y-64519195D01*
X177126225Y-64538654D01*
X177107429Y-64558423D01*
X177071074Y-64558365D01*
X177012479Y-64537441D01*
X176926968Y-64494613D01*
X176926292Y-64494249D01*
X176861907Y-64461012D01*
X176809861Y-64436802D01*
X176780512Y-64426404D01*
X176779217Y-64426308D01*
X176757124Y-64436855D01*
X176708348Y-64466184D01*
X176638331Y-64510827D01*
X176552514Y-64567314D01*
X176457388Y-64631462D01*
X176360540Y-64696411D01*
X176273253Y-64752896D01*
X176201181Y-64797421D01*
X176149977Y-64826490D01*
X176125526Y-64836616D01*
X176103010Y-64823307D01*
X176057742Y-64786112D01*
X175994244Y-64729128D01*
X175917039Y-64656449D01*
X175830651Y-64572171D01*
X175802399Y-64544016D01*
X175510287Y-64251416D01*
X175732631Y-63925104D01*
X175800202Y-63824897D01*
X175859507Y-63734963D01*
X175907217Y-63660510D01*
X175940007Y-63606751D01*
X175954548Y-63578894D01*
X175954974Y-63576912D01*
X175947308Y-63550655D01*
X175926689Y-63497837D01*
X175896685Y-63427310D01*
X175875625Y-63380093D01*
X175836248Y-63289694D01*
X175799165Y-63198366D01*
X175770415Y-63121200D01*
X175762605Y-63097692D01*
X175740417Y-63034916D01*
X175718727Y-62986411D01*
X175706813Y-62968079D01*
X175680523Y-62956859D01*
X175623142Y-62940954D01*
X175542118Y-62922167D01*
X175444895Y-62902299D01*
X175401385Y-62894132D01*
X175290896Y-62873829D01*
X175184916Y-62854170D01*
X175093801Y-62837088D01*
X175027908Y-62824518D01*
X175015500Y-62822091D01*
X174912923Y-62801845D01*
X174912923Y-62374701D01*
X174913153Y-62234246D01*
X174914099Y-62127979D01*
X174916141Y-62051013D01*
X174919662Y-61998460D01*
X174925043Y-61965433D01*
X174932666Y-61947045D01*
X174942912Y-61938408D01*
X174947115Y-61936807D01*
X174972470Y-61931127D01*
X175028484Y-61919795D01*
X175107964Y-61904179D01*
X175203712Y-61885647D01*
X175308533Y-61865569D01*
X175415232Y-61845312D01*
X175516613Y-61826246D01*
X175605479Y-61809739D01*
X175674637Y-61797159D01*
X175716889Y-61789875D01*
X175726290Y-61788616D01*
X175734807Y-61771763D01*
X175753660Y-61726870D01*
X175779324Y-61662430D01*
X175789123Y-61637192D01*
X175828648Y-61539686D01*
X175875192Y-61431959D01*
X175916877Y-61341172D01*
X175947550Y-61271753D01*
X175967956Y-61214710D01*
X175974768Y-61179777D01*
X175973682Y-61175095D01*
X175959285Y-61152991D01*
X175926412Y-61103831D01*
X175878590Y-61032848D01*
X175819348Y-60945278D01*
X175752215Y-60846357D01*
X175738941Y-60826830D01*
X175661046Y-60711140D01*
X175603787Y-60623044D01*
X175564881Y-60558486D01*
X175542044Y-60513411D01*
X175532994Y-60483763D01*
X175535448Y-60465485D01*
X175535511Y-60465369D01*
X175554827Y-60441361D01*
X175597551Y-60394947D01*
X175659051Y-60330937D01*
X175734698Y-60254145D01*
X175819861Y-60169382D01*
X175829465Y-60159922D01*
X175936790Y-60055989D01*
X176019615Y-59979675D01*
X176079605Y-59929571D01*
X176118423Y-59904270D01*
X176135520Y-59901004D01*
X176160473Y-59915250D01*
X176212255Y-59948156D01*
X176285520Y-59996208D01*
X176374920Y-60055890D01*
X176475111Y-60123688D01*
X176498501Y-60139639D01*
X176830593Y-60366420D01*
X176980565Y-60298353D01*
X177071770Y-60258685D01*
X177169669Y-60218791D01*
X177253831Y-60186983D01*
X177257538Y-60185674D01*
X177323369Y-60161576D01*
X177374116Y-60141200D01*
X177398842Y-60128936D01*
X177398884Y-60128901D01*
X177406729Y-60106734D01*
X177420066Y-60052217D01*
X177437570Y-59971480D01*
X177457917Y-59870650D01*
X177479782Y-59755856D01*
X177481571Y-59746178D01*
X177503504Y-59627904D01*
X177523640Y-59520542D01*
X177540680Y-59430917D01*
X177553328Y-59365851D01*
X177560284Y-59332168D01*
X177560406Y-59331654D01*
X177564639Y-59317325D01*
X177572871Y-59306507D01*
X177590033Y-59298706D01*
X177621058Y-59293429D01*
X177670878Y-59290182D01*
X177744424Y-59288472D01*
X177846629Y-59287807D01*
X177982425Y-59287693D01*
X178000000Y-59287692D01*
X178139878Y-59287776D01*
G36*
X180395929Y-65636662D02*
G01*
X180398911Y-65688068D01*
X180401247Y-65766192D01*
X180402749Y-65864857D01*
X180403231Y-65968343D01*
X180403231Y-66318533D01*
X180341401Y-66380363D01*
X180298793Y-66418462D01*
X180261390Y-66433895D01*
X180210270Y-66432918D01*
X180189978Y-66430433D01*
X180126554Y-66423200D01*
X180074095Y-66419055D01*
X180061308Y-66418672D01*
X180018199Y-66421176D01*
X179956544Y-66427462D01*
X179932638Y-66430433D01*
X179873922Y-66435028D01*
X179834464Y-66425046D01*
X179795338Y-66394228D01*
X179781215Y-66380363D01*
X179719385Y-66318533D01*
X179719385Y-65663503D01*
X179769150Y-65640829D01*
X179812002Y-65624034D01*
X179837073Y-65618154D01*
X179843501Y-65636736D01*
X179849509Y-65688655D01*
X179854697Y-65768172D01*
X179858664Y-65869546D01*
X179860577Y-65955192D01*
X179865923Y-66292231D01*
X179912560Y-66298825D01*
X179954976Y-66294214D01*
X179975760Y-66279287D01*
X179981570Y-66251377D01*
X179986530Y-66191925D01*
X179990246Y-66108466D01*
X179992324Y-66008532D01*
X179992624Y-65957104D01*
X179992923Y-65661054D01*
X180054454Y-65639604D01*
X180098004Y-65625020D01*
X180121694Y-65618219D01*
X180122377Y-65618154D01*
X180124754Y-65636642D01*
X180127366Y-65687906D01*
X180129995Y-65765649D01*
X180132421Y-65863574D01*
X180134115Y-65955192D01*
X180139461Y-66292231D01*
X180256692Y-66292231D01*
X180262072Y-65984746D01*
X180267451Y-65677261D01*
X180324601Y-65647707D01*
X180366797Y-65627413D01*
X180391770Y-65618204D01*
X180392491Y-65618154D01*
X180395929Y-65636662D01*
G37*
X180395929Y-65636662D02*
X180398911Y-65688068D01*
X180401247Y-65766192D01*
X180402749Y-65864857D01*
X180403231Y-65968343D01*
X180403231Y-66318533D01*
X180341401Y-66380363D01*
X180298793Y-66418462D01*
X180261390Y-66433895D01*
X180210270Y-66432918D01*
X180189978Y-66430433D01*
X180126554Y-66423200D01*
X180074095Y-66419055D01*
X180061308Y-66418672D01*
X180018199Y-66421176D01*
X179956544Y-66427462D01*
X179932638Y-66430433D01*
X179873922Y-66435028D01*
X179834464Y-66425046D01*
X179795338Y-66394228D01*
X179781215Y-66380363D01*
X179719385Y-66318533D01*
X179719385Y-65663503D01*
X179769150Y-65640829D01*
X179812002Y-65624034D01*
X179837073Y-65618154D01*
X179843501Y-65636736D01*
X179849509Y-65688655D01*
X179854697Y-65768172D01*
X179858664Y-65869546D01*
X179860577Y-65955192D01*
X179865923Y-66292231D01*
X179912560Y-66298825D01*
X179954976Y-66294214D01*
X179975760Y-66279287D01*
X179981570Y-66251377D01*
X179986530Y-66191925D01*
X179990246Y-66108466D01*
X179992324Y-66008532D01*
X179992624Y-65957104D01*
X179992923Y-65661054D01*
X180054454Y-65639604D01*
X180098004Y-65625020D01*
X180121694Y-65618219D01*
X180122377Y-65618154D01*
X180124754Y-65636642D01*
X180127366Y-65687906D01*
X180129995Y-65765649D01*
X180132421Y-65863574D01*
X180134115Y-65955192D01*
X180139461Y-66292231D01*
X180256692Y-66292231D01*
X180262072Y-65984746D01*
X180267451Y-65677261D01*
X180324601Y-65647707D01*
X180366797Y-65627413D01*
X180391770Y-65618204D01*
X180392491Y-65618154D01*
X180395929Y-65636662D01*
G36*
X178713362Y-65624670D02*
G01*
X178802117Y-65657421D01*
X178874022Y-65715350D01*
X178902144Y-65756128D01*
X178932802Y-65830954D01*
X178932165Y-65885058D01*
X178899987Y-65921446D01*
X178888081Y-65927633D01*
X178836675Y-65946925D01*
X178810422Y-65941982D01*
X178801530Y-65909587D01*
X178801077Y-65891692D01*
X178784797Y-65825859D01*
X178742365Y-65779807D01*
X178683388Y-65757564D01*
X178617475Y-65763161D01*
X178563895Y-65792229D01*
X178545798Y-65808810D01*
X178532971Y-65828925D01*
X178524306Y-65859332D01*
X178518696Y-65906788D01*
X178515035Y-65978050D01*
X178512215Y-66079875D01*
X178511484Y-66112115D01*
X178508820Y-66222410D01*
X178505792Y-66300036D01*
X178501250Y-66351396D01*
X178494046Y-66382890D01*
X178483033Y-66400920D01*
X178467060Y-66411888D01*
X178456834Y-66416733D01*
X178413406Y-66433301D01*
X178387842Y-66438769D01*
X178379395Y-66420507D01*
X178374239Y-66365296D01*
X178372346Y-66272499D01*
X178373689Y-66141478D01*
X178374107Y-66121269D01*
X178377058Y-66001733D01*
X178380548Y-65914449D01*
X178385514Y-65852591D01*
X178392893Y-65809336D01*
X178403624Y-65777860D01*
X178418645Y-65751339D01*
X178426502Y-65739975D01*
X178471553Y-65689692D01*
X178521940Y-65650581D01*
X178528108Y-65647167D01*
X178618458Y-65620212D01*
X178713362Y-65624670D01*
G37*
X178713362Y-65624670D02*
X178802117Y-65657421D01*
X178874022Y-65715350D01*
X178902144Y-65756128D01*
X178932802Y-65830954D01*
X178932165Y-65885058D01*
X178899987Y-65921446D01*
X178888081Y-65927633D01*
X178836675Y-65946925D01*
X178810422Y-65941982D01*
X178801530Y-65909587D01*
X178801077Y-65891692D01*
X178784797Y-65825859D01*
X178742365Y-65779807D01*
X178683388Y-65757564D01*
X178617475Y-65763161D01*
X178563895Y-65792229D01*
X178545798Y-65808810D01*
X178532971Y-65828925D01*
X178524306Y-65859332D01*
X178518696Y-65906788D01*
X178515035Y-65978050D01*
X178512215Y-66079875D01*
X178511484Y-66112115D01*
X178508820Y-66222410D01*
X178505792Y-66300036D01*
X178501250Y-66351396D01*
X178494046Y-66382890D01*
X178483033Y-66400920D01*
X178467060Y-66411888D01*
X178456834Y-66416733D01*
X178413406Y-66433301D01*
X178387842Y-66438769D01*
X178379395Y-66420507D01*
X178374239Y-66365296D01*
X178372346Y-66272499D01*
X178373689Y-66141478D01*
X178374107Y-66121269D01*
X178377058Y-66001733D01*
X178380548Y-65914449D01*
X178385514Y-65852591D01*
X178392893Y-65809336D01*
X178403624Y-65777860D01*
X178418645Y-65751339D01*
X178426502Y-65739975D01*
X178471553Y-65689692D01*
X178521940Y-65650581D01*
X178528108Y-65647167D01*
X178618458Y-65620212D01*
X178713362Y-65624670D01*
G36*
X180887333Y-65633528D02*
G01*
X180943590Y-65659117D01*
X180987747Y-65690124D01*
X181020101Y-65724795D01*
X181042438Y-65769520D01*
X181056546Y-65830692D01*
X181064211Y-65914701D01*
X181067220Y-66027940D01*
X181067538Y-66102509D01*
X181067538Y-66393420D01*
X181017773Y-66416095D01*
X180978576Y-66432667D01*
X180959157Y-66438769D01*
X180955442Y-66420610D01*
X180952495Y-66371648D01*
X180950691Y-66300153D01*
X180950308Y-66243385D01*
X180948661Y-66161371D01*
X180944222Y-66096309D01*
X180937740Y-66056467D01*
X180932590Y-66048000D01*
X180897977Y-66056646D01*
X180843640Y-66078823D01*
X180780722Y-66108886D01*
X180720368Y-66141192D01*
X180673721Y-66170098D01*
X180651926Y-66189961D01*
X180651839Y-66190175D01*
X180653714Y-66226935D01*
X180670525Y-66262026D01*
X180700039Y-66290528D01*
X180743116Y-66300061D01*
X180779932Y-66298950D01*
X180832074Y-66298133D01*
X180859444Y-66310349D01*
X180875882Y-66342624D01*
X180877955Y-66348710D01*
X180885081Y-66394739D01*
X180866024Y-66422687D01*
X180816353Y-66436007D01*
X180762697Y-66438470D01*
X180666142Y-66420210D01*
X180616159Y-66394131D01*
X180554429Y-66332868D01*
X180521690Y-66257670D01*
X180518753Y-66178211D01*
X180546424Y-66104167D01*
X180588047Y-66057769D01*
X180629604Y-66031793D01*
X180694922Y-65998907D01*
X180771038Y-65965557D01*
X180783726Y-65960461D01*
X180867333Y-65923565D01*
X180915530Y-65891046D01*
X180931030Y-65858718D01*
X180916550Y-65822394D01*
X180891692Y-65794000D01*
X180832939Y-65759039D01*
X180768293Y-65756417D01*
X180709008Y-65783358D01*
X180666339Y-65837088D01*
X180660739Y-65850950D01*
X180628133Y-65901936D01*
X180580530Y-65939787D01*
X180520461Y-65970850D01*
X180520461Y-65882768D01*
X180523997Y-65828951D01*
X180539156Y-65786534D01*
X180572768Y-65741279D01*
X180605035Y-65706420D01*
X180655209Y-65657062D01*
X180694193Y-65630547D01*
X180736064Y-65619911D01*
X180783460Y-65618154D01*
X180887333Y-65633528D01*
G37*
X180887333Y-65633528D02*
X180943590Y-65659117D01*
X180987747Y-65690124D01*
X181020101Y-65724795D01*
X181042438Y-65769520D01*
X181056546Y-65830692D01*
X181064211Y-65914701D01*
X181067220Y-66027940D01*
X181067538Y-66102509D01*
X181067538Y-66393420D01*
X181017773Y-66416095D01*
X180978576Y-66432667D01*
X180959157Y-66438769D01*
X180955442Y-66420610D01*
X180952495Y-66371648D01*
X180950691Y-66300153D01*
X180950308Y-66243385D01*
X180948661Y-66161371D01*
X180944222Y-66096309D01*
X180937740Y-66056467D01*
X180932590Y-66048000D01*
X180897977Y-66056646D01*
X180843640Y-66078823D01*
X180780722Y-66108886D01*
X180720368Y-66141192D01*
X180673721Y-66170098D01*
X180651926Y-66189961D01*
X180651839Y-66190175D01*
X180653714Y-66226935D01*
X180670525Y-66262026D01*
X180700039Y-66290528D01*
X180743116Y-66300061D01*
X180779932Y-66298950D01*
X180832074Y-66298133D01*
X180859444Y-66310349D01*
X180875882Y-66342624D01*
X180877955Y-66348710D01*
X180885081Y-66394739D01*
X180866024Y-66422687D01*
X180816353Y-66436007D01*
X180762697Y-66438470D01*
X180666142Y-66420210D01*
X180616159Y-66394131D01*
X180554429Y-66332868D01*
X180521690Y-66257670D01*
X180518753Y-66178211D01*
X180546424Y-66104167D01*
X180588047Y-66057769D01*
X180629604Y-66031793D01*
X180694922Y-65998907D01*
X180771038Y-65965557D01*
X180783726Y-65960461D01*
X180867333Y-65923565D01*
X180915530Y-65891046D01*
X180931030Y-65858718D01*
X180916550Y-65822394D01*
X180891692Y-65794000D01*
X180832939Y-65759039D01*
X180768293Y-65756417D01*
X180709008Y-65783358D01*
X180666339Y-65837088D01*
X180660739Y-65850950D01*
X180628133Y-65901936D01*
X180580530Y-65939787D01*
X180520461Y-65970850D01*
X180520461Y-65882768D01*
X180523997Y-65828951D01*
X180539156Y-65786534D01*
X180572768Y-65741279D01*
X180605035Y-65706420D01*
X180655209Y-65657062D01*
X180694193Y-65630547D01*
X180736064Y-65619911D01*
X180783460Y-65618154D01*
X180887333Y-65633528D01*
G36*
X174356873Y-65894679D02*
G01*
X174360606Y-65830905D01*
X174365907Y-65785582D01*
X174373258Y-65753555D01*
X174383143Y-65729668D01*
X174396046Y-65708764D01*
X174401579Y-65700898D01*
X174474969Y-65626595D01*
X174567760Y-65584467D01*
X174675096Y-65572722D01*
X174768886Y-65584505D01*
X174843539Y-65621727D01*
X174909431Y-65690261D01*
X174927577Y-65715648D01*
X174947345Y-65748866D01*
X174960172Y-65784945D01*
X174967510Y-65833098D01*
X174970813Y-65902536D01*
X174971538Y-65994206D01*
X174968263Y-66119830D01*
X174956877Y-66214154D01*
X174935041Y-66284523D01*
X174900419Y-66338286D01*
X174850670Y-66382788D01*
X174847014Y-66385423D01*
X174797985Y-66412377D01*
X174738945Y-66425712D01*
X174663859Y-66429000D01*
X174541795Y-66429000D01*
X174541744Y-66547497D01*
X174540608Y-66613492D01*
X174533686Y-66652202D01*
X174515598Y-66675419D01*
X174480962Y-66694933D01*
X174472645Y-66698920D01*
X174433720Y-66717603D01*
X174403583Y-66729403D01*
X174381174Y-66730422D01*
X174365433Y-66716761D01*
X174355302Y-66684522D01*
X174349723Y-66629804D01*
X174347635Y-66548711D01*
X174347981Y-66437344D01*
X174349700Y-66291802D01*
X174350237Y-66248269D01*
X174352172Y-66098205D01*
X174353904Y-66000042D01*
X174541692Y-66000042D01*
X174542748Y-66083364D01*
X174547438Y-66137880D01*
X174558051Y-66173837D01*
X174576872Y-66201482D01*
X174589650Y-66214965D01*
X174641890Y-66254417D01*
X174688142Y-66257628D01*
X174735867Y-66225049D01*
X174737077Y-66223846D01*
X174756494Y-66198668D01*
X174768307Y-66164447D01*
X174774265Y-66111748D01*
X174776120Y-66031131D01*
X174776154Y-66013271D01*
X174771670Y-65902175D01*
X174757074Y-65825161D01*
X174730650Y-65778147D01*
X174690683Y-65757050D01*
X174667584Y-65754923D01*
X174612762Y-65764900D01*
X174575158Y-65797752D01*
X174552523Y-65857857D01*
X174542606Y-65949598D01*
X174541692Y-66000042D01*
X174353904Y-66000042D01*
X174354222Y-65982060D01*
X174356873Y-65894679D01*
G37*
X174356873Y-65894679D02*
X174360606Y-65830905D01*
X174365907Y-65785582D01*
X174373258Y-65753555D01*
X174383143Y-65729668D01*
X174396046Y-65708764D01*
X174401579Y-65700898D01*
X174474969Y-65626595D01*
X174567760Y-65584467D01*
X174675096Y-65572722D01*
X174768886Y-65584505D01*
X174843539Y-65621727D01*
X174909431Y-65690261D01*
X174927577Y-65715648D01*
X174947345Y-65748866D01*
X174960172Y-65784945D01*
X174967510Y-65833098D01*
X174970813Y-65902536D01*
X174971538Y-65994206D01*
X174968263Y-66119830D01*
X174956877Y-66214154D01*
X174935041Y-66284523D01*
X174900419Y-66338286D01*
X174850670Y-66382788D01*
X174847014Y-66385423D01*
X174797985Y-66412377D01*
X174738945Y-66425712D01*
X174663859Y-66429000D01*
X174541795Y-66429000D01*
X174541744Y-66547497D01*
X174540608Y-66613492D01*
X174533686Y-66652202D01*
X174515598Y-66675419D01*
X174480962Y-66694933D01*
X174472645Y-66698920D01*
X174433720Y-66717603D01*
X174403583Y-66729403D01*
X174381174Y-66730422D01*
X174365433Y-66716761D01*
X174355302Y-66684522D01*
X174349723Y-66629804D01*
X174347635Y-66548711D01*
X174347981Y-66437344D01*
X174349700Y-66291802D01*
X174350237Y-66248269D01*
X174352172Y-66098205D01*
X174353904Y-66000042D01*
X174541692Y-66000042D01*
X174542748Y-66083364D01*
X174547438Y-66137880D01*
X174558051Y-66173837D01*
X174576872Y-66201482D01*
X174589650Y-66214965D01*
X174641890Y-66254417D01*
X174688142Y-66257628D01*
X174735867Y-66225049D01*
X174737077Y-66223846D01*
X174756494Y-66198668D01*
X174768307Y-66164447D01*
X174774265Y-66111748D01*
X174776120Y-66031131D01*
X174776154Y-66013271D01*
X174771670Y-65902175D01*
X174757074Y-65825161D01*
X174730650Y-65778147D01*
X174690683Y-65757050D01*
X174667584Y-65754923D01*
X174612762Y-65764900D01*
X174575158Y-65797752D01*
X174552523Y-65857857D01*
X174542606Y-65949598D01*
X174541692Y-66000042D01*
X174353904Y-66000042D01*
X174354222Y-65982060D01*
X174356873Y-65894679D01*
G36*
X177159846Y-65492120D02*
G01*
X177165572Y-65571980D01*
X177172149Y-65619039D01*
X177181262Y-65639566D01*
X177194598Y-65639829D01*
X177198923Y-65637378D01*
X177256444Y-65619636D01*
X177331268Y-65620672D01*
X177407339Y-65638910D01*
X177454918Y-65662505D01*
X177503702Y-65700198D01*
X177539364Y-65742855D01*
X177563845Y-65797057D01*
X177579087Y-65869384D01*
X177587030Y-65966419D01*
X177589616Y-66094742D01*
X177589662Y-66119358D01*
X177589692Y-66395870D01*
X177528161Y-66417320D01*
X177484459Y-66431912D01*
X177460482Y-66438706D01*
X177459777Y-66438769D01*
X177457415Y-66420345D01*
X177455406Y-66369526D01*
X177453901Y-66292993D01*
X177453053Y-66197430D01*
X177452923Y-66139329D01*
X177452651Y-66024771D01*
X177451252Y-65942667D01*
X177447849Y-65886393D01*
X177441567Y-65849326D01*
X177431529Y-65824844D01*
X177416861Y-65806325D01*
X177407702Y-65797406D01*
X177344789Y-65761466D01*
X177276136Y-65758775D01*
X177213848Y-65789170D01*
X177202329Y-65800144D01*
X177185433Y-65820779D01*
X177173714Y-65845256D01*
X177166233Y-65880647D01*
X177162054Y-65934026D01*
X177160237Y-66012466D01*
X177159846Y-66120617D01*
X177159846Y-66395870D01*
X177098315Y-66417320D01*
X177054613Y-66431912D01*
X177030636Y-66438706D01*
X177029930Y-66438769D01*
X177028126Y-66420069D01*
X177026500Y-66367322D01*
X177025117Y-66285557D01*
X177024042Y-66179805D01*
X177023340Y-66055094D01*
X177023077Y-65916455D01*
X177023077Y-65381806D01*
X177150077Y-65328236D01*
X177159846Y-65492120D01*
G37*
X177159846Y-65492120D02*
X177165572Y-65571980D01*
X177172149Y-65619039D01*
X177181262Y-65639566D01*
X177194598Y-65639829D01*
X177198923Y-65637378D01*
X177256444Y-65619636D01*
X177331268Y-65620672D01*
X177407339Y-65638910D01*
X177454918Y-65662505D01*
X177503702Y-65700198D01*
X177539364Y-65742855D01*
X177563845Y-65797057D01*
X177579087Y-65869384D01*
X177587030Y-65966419D01*
X177589616Y-66094742D01*
X177589662Y-66119358D01*
X177589692Y-66395870D01*
X177528161Y-66417320D01*
X177484459Y-66431912D01*
X177460482Y-66438706D01*
X177459777Y-66438769D01*
X177457415Y-66420345D01*
X177455406Y-66369526D01*
X177453901Y-66292993D01*
X177453053Y-66197430D01*
X177452923Y-66139329D01*
X177452651Y-66024771D01*
X177451252Y-65942667D01*
X177447849Y-65886393D01*
X177441567Y-65849326D01*
X177431529Y-65824844D01*
X177416861Y-65806325D01*
X177407702Y-65797406D01*
X177344789Y-65761466D01*
X177276136Y-65758775D01*
X177213848Y-65789170D01*
X177202329Y-65800144D01*
X177185433Y-65820779D01*
X177173714Y-65845256D01*
X177166233Y-65880647D01*
X177162054Y-65934026D01*
X177160237Y-66012466D01*
X177159846Y-66120617D01*
X177159846Y-66395870D01*
X177098315Y-66417320D01*
X177054613Y-66431912D01*
X177030636Y-66438706D01*
X177029930Y-66438769D01*
X177028126Y-66420069D01*
X177026500Y-66367322D01*
X177025117Y-66285557D01*
X177024042Y-66179805D01*
X177023340Y-66055094D01*
X177023077Y-65916455D01*
X177023077Y-65381806D01*
X177150077Y-65328236D01*
X177159846Y-65492120D01*
D11*
%TO.C,10K*%
X181320000Y-49880000D02*
X179480000Y-49880000D01*
X179480000Y-53720000D02*
X181320000Y-53720000D01*
X180400000Y-48930000D02*
X180400000Y-49880000D01*
X181320000Y-53720000D02*
X181320000Y-49880000D01*
X179480000Y-49880000D02*
X179480000Y-53720000D01*
X180400000Y-54670000D02*
X180400000Y-53720000D01*
%TO.C,300K*%
X200120000Y-51910000D02*
X200120000Y-48070000D01*
X199200000Y-52860000D02*
X199200000Y-51910000D01*
X198280000Y-51910000D02*
X200120000Y-51910000D01*
X199200000Y-47120000D02*
X199200000Y-48070000D01*
X200120000Y-48070000D02*
X198280000Y-48070000D01*
X198280000Y-48070000D02*
X198280000Y-51910000D01*
%TO.C,Micro SD*%
X190090000Y-54980000D02*
X186420000Y-54980000D01*
X195070000Y-65250000D02*
X195070000Y-60800000D01*
X195070000Y-54980000D02*
X192390000Y-54980000D01*
X195070000Y-59400000D02*
X195070000Y-57100000D01*
X193590000Y-66620000D02*
X192730000Y-66620000D01*
X195070000Y-55700000D02*
X195070000Y-54980000D01*
X184120000Y-54980000D02*
X182890000Y-54980000D01*
X182890000Y-54980000D02*
X182890000Y-64800000D01*
%TO.C,3K*%
X175080000Y-49870000D02*
X175080000Y-53710000D01*
X176920000Y-49870000D02*
X175080000Y-49870000D01*
X176000000Y-48920000D02*
X176000000Y-49870000D01*
X176920000Y-53710000D02*
X176920000Y-49870000D01*
X176000000Y-54660000D02*
X176000000Y-53710000D01*
X175080000Y-53710000D02*
X176920000Y-53710000D01*
%TO.C,10K*%
X177280000Y-53720000D02*
X179120000Y-53720000D01*
X177280000Y-49880000D02*
X177280000Y-53720000D01*
X178200000Y-54670000D02*
X178200000Y-53720000D01*
X179120000Y-53720000D02*
X179120000Y-49880000D01*
X178200000Y-48930000D02*
X178200000Y-49880000D01*
X179120000Y-49880000D02*
X177280000Y-49880000D01*
%TD*%
M02*
